<?xml version="1.0" encoding="UTF-8"?>
<svg xmlns="http://www.w3.org/2000/svg" xmlns:xlink="http://www.w3.org/1999/xlink" width="24px" height="24px" viewBox="0 0 24 24" version="1.1">
<g id="surface1">
<path style=" stroke:none;fill-rule:nonzero;fill:rgb(45.09804%,67.450982%,36.862746%);fill-opacity:1;" d="M 4.007812 4.125 C 4.082031 4.125 4.152344 4.132812 4.226562 4.144531 C 4.292969 4.152344 4.292969 4.152344 4.382812 4.136719 C 4.511719 4.121094 4.636719 4.121094 4.765625 4.121094 C 4.804688 4.121094 4.804688 4.121094 4.84375 4.121094 C 4.933594 4.121094 5.023438 4.121094 5.109375 4.121094 C 5.171875 4.121094 5.238281 4.121094 5.300781 4.121094 C 5.4375 4.121094 5.578125 4.121094 5.714844 4.121094 C 5.921875 4.121094 6.128906 4.121094 6.332031 4.121094 C 6.699219 4.121094 7.066406 4.121094 7.4375 4.121094 C 7.757812 4.121094 8.078125 4.121094 8.402344 4.121094 C 8.433594 4.121094 8.433594 4.121094 8.464844 4.121094 C 8.550781 4.121094 8.636719 4.121094 8.726562 4.121094 C 9.535156 4.121094 10.347656 4.121094 11.160156 4.121094 C 11.882812 4.121094 12.605469 4.121094 13.324219 4.121094 C 14.136719 4.121094 14.945312 4.121094 15.757812 4.121094 C 15.84375 4.121094 15.929688 4.121094 16.015625 4.121094 C 16.039062 4.121094 16.058594 4.121094 16.082031 4.121094 C 16.402344 4.121094 16.722656 4.121094 17.046875 4.121094 C 17.410156 4.121094 17.777344 4.121094 18.140625 4.121094 C 18.347656 4.121094 18.550781 4.121094 18.753906 4.121094 C 18.890625 4.121094 19.027344 4.121094 19.164062 4.121094 C 19.242188 4.121094 19.320312 4.121094 19.398438 4.121094 C 19.484375 4.121094 19.566406 4.121094 19.648438 4.121094 C 19.675781 4.121094 19.699219 4.121094 19.722656 4.121094 C 19.757812 4.121094 19.757812 4.121094 19.792969 4.121094 C 19.808594 4.121094 19.828125 4.121094 19.847656 4.121094 C 19.898438 4.125 19.898438 4.125 19.96875 4.148438 C 19.988281 4.527344 19.996094 4.90625 19.996094 5.285156 C 19.996094 5.347656 19.996094 5.40625 19.996094 5.46875 C 19.996094 5.601562 19.996094 5.730469 19.996094 5.863281 C 19.996094 6.058594 19.996094 6.257812 19.996094 6.453125 C 19.996094 6.78125 19.996094 7.113281 19.992188 7.445312 C 19.992188 7.894531 19.992188 8.347656 19.992188 8.796875 C 19.992188 9.007812 19.992188 9.21875 19.992188 9.429688 C 19.992188 9.449219 19.992188 9.472656 19.992188 9.492188 C 19.992188 9.992188 19.992188 10.492188 19.992188 10.996094 C 19.992188 11.015625 19.992188 11.039062 19.992188 11.0625 C 19.992188 11.394531 19.992188 11.726562 19.992188 12.058594 C 19.992188 12.414062 19.992188 12.769531 19.992188 13.125 C 19.992188 13.148438 19.992188 13.171875 19.992188 13.191406 C 19.992188 13.691406 19.992188 14.195312 19.992188 14.695312 C 19.992188 14.726562 19.992188 14.726562 19.992188 14.757812 C 19.992188 14.96875 19.992188 15.175781 19.992188 15.386719 C 19.992188 15.839844 19.992188 16.289062 19.992188 16.738281 C 19.988281 17.066406 19.988281 17.394531 19.988281 17.722656 C 19.988281 17.917969 19.988281 18.113281 19.988281 18.308594 C 19.988281 18.453125 19.988281 18.601562 19.988281 18.746094 C 19.988281 18.804688 19.988281 18.863281 19.988281 18.921875 C 19.988281 19.300781 19.988281 19.300781 20.011719 19.679688 C 20.015625 19.734375 20.011719 19.777344 19.992188 19.828125 C 19.898438 19.886719 19.808594 19.875 19.699219 19.867188 C 19.535156 19.851562 19.367188 19.847656 19.199219 19.847656 C 19.175781 19.847656 19.15625 19.847656 19.132812 19.847656 C 19.113281 19.847656 19.089844 19.847656 19.070312 19.847656 C 19.050781 19.847656 19.03125 19.847656 19.011719 19.847656 C 18.960938 19.851562 18.960938 19.851562 18.917969 19.863281 C 18.863281 19.875 18.824219 19.871094 18.769531 19.863281 C 18.660156 19.851562 18.550781 19.847656 18.441406 19.847656 C 18.421875 19.847656 18.398438 19.847656 18.378906 19.847656 C 18.3125 19.847656 18.246094 19.847656 18.179688 19.847656 C 18.132812 19.847656 18.082031 19.847656 18.035156 19.847656 C 17.9375 19.847656 17.839844 19.847656 17.742188 19.847656 C 17.617188 19.847656 17.492188 19.847656 17.363281 19.847656 C 17.269531 19.847656 17.171875 19.847656 17.074219 19.847656 C 17.027344 19.847656 16.980469 19.847656 16.933594 19.847656 C 16.699219 19.847656 16.464844 19.851562 16.226562 19.867188 C 16.128906 19.875 16.042969 19.871094 15.945312 19.859375 C 15.824219 19.84375 15.699219 19.847656 15.578125 19.847656 C 15.53125 19.847656 15.480469 19.847656 15.433594 19.847656 C 15.402344 19.847656 15.371094 19.847656 15.339844 19.847656 C 15.300781 19.847656 15.300781 19.847656 15.257812 19.847656 C 15.1875 19.847656 15.1875 19.847656 15.117188 19.875 C 15.09375 19.871094 15.070312 19.867188 15.042969 19.863281 C 14.96875 19.855469 14.929688 19.851562 14.859375 19.863281 C 14.734375 19.878906 14.617188 19.871094 14.496094 19.863281 C 14.332031 19.855469 14.171875 19.847656 14.007812 19.847656 C 13.980469 19.847656 13.949219 19.847656 13.921875 19.847656 C 13.851562 19.847656 13.851562 19.847656 13.804688 19.875 C 13.789062 19.871094 13.773438 19.867188 13.757812 19.863281 C 13.664062 19.847656 13.574219 19.847656 13.484375 19.847656 C 13.464844 19.847656 13.441406 19.847656 13.421875 19.847656 C 13.355469 19.847656 13.285156 19.847656 13.214844 19.847656 C 13.167969 19.847656 13.117188 19.847656 13.070312 19.847656 C 12.933594 19.847656 12.800781 19.847656 12.667969 19.847656 C 12.527344 19.847656 12.386719 19.847656 12.246094 19.847656 C 12.011719 19.847656 11.777344 19.847656 11.539062 19.847656 C 11.269531 19.847656 10.996094 19.847656 10.726562 19.847656 C 10.492188 19.847656 10.257812 19.847656 10.023438 19.847656 C 9.882812 19.847656 9.746094 19.847656 9.605469 19.847656 C 9.476562 19.847656 9.34375 19.847656 9.210938 19.847656 C 9.164062 19.847656 9.117188 19.847656 9.066406 19.847656 C 8.820312 19.847656 8.578125 19.851562 8.332031 19.867188 C 8.207031 19.875 8.082031 19.871094 7.957031 19.863281 C 7.921875 19.863281 7.921875 19.863281 7.890625 19.859375 C 7.871094 19.859375 7.851562 19.859375 7.832031 19.859375 C 7.65625 19.847656 7.484375 19.847656 7.308594 19.847656 C 7.289062 19.847656 7.273438 19.847656 7.253906 19.847656 C 7.144531 19.847656 7.035156 19.847656 6.925781 19.847656 C 6.828125 19.847656 6.730469 19.847656 6.632812 19.847656 C 6.46875 19.847656 6.304688 19.847656 6.140625 19.847656 C 5.953125 19.847656 5.765625 19.847656 5.574219 19.847656 C 5.414062 19.847656 5.25 19.847656 5.085938 19.847656 C 4.988281 19.847656 4.894531 19.847656 4.796875 19.847656 C 4.707031 19.847656 4.613281 19.847656 4.523438 19.847656 C 4.492188 19.847656 4.457031 19.847656 4.425781 19.847656 C 4.378906 19.847656 4.332031 19.847656 4.289062 19.847656 C 4.25 19.847656 4.25 19.847656 4.210938 19.847656 C 4.144531 19.847656 4.144531 19.847656 4.078125 19.875 C 4.054688 19.875 4.03125 19.875 4.007812 19.875 C 3.984375 19.621094 3.980469 19.367188 3.980469 19.113281 C 3.980469 19.070312 3.980469 19.027344 3.980469 18.984375 C 3.980469 18.871094 3.984375 18.753906 3.984375 18.640625 C 3.984375 18.527344 3.984375 18.410156 3.984375 18.292969 C 3.984375 18.109375 3.984375 17.921875 3.984375 17.734375 C 3.984375 17.660156 3.984375 17.582031 3.984375 17.507812 C 3.984375 17.457031 3.984375 17.402344 3.984375 17.351562 C 3.984375 17.304688 3.984375 17.261719 3.984375 17.214844 C 3.984375 17.183594 3.984375 17.152344 3.984375 17.117188 C 3.988281 17.074219 3.988281 17.027344 3.988281 16.980469 C 3.988281 16.953125 3.988281 16.925781 3.988281 16.898438 C 3.988281 16.828125 3.988281 16.828125 3.960938 16.757812 C 3.976562 16.757812 3.992188 16.757812 4.007812 16.757812 C 4.003906 16.710938 4 16.667969 3.996094 16.621094 C 3.996094 16.597656 3.992188 16.570312 3.992188 16.546875 C 3.988281 16.476562 3.988281 16.476562 3.960938 16.40625 C 3.96875 16.367188 3.976562 16.328125 3.984375 16.289062 C 3.988281 16.246094 3.988281 16.199219 3.988281 16.15625 C 3.988281 16.132812 3.988281 16.109375 3.988281 16.082031 C 3.988281 16.058594 3.988281 16.03125 3.988281 16.003906 C 3.988281 15.980469 3.988281 15.953125 3.988281 15.925781 C 3.988281 15.902344 3.988281 15.878906 3.988281 15.851562 C 3.988281 15.828125 3.988281 15.808594 3.988281 15.785156 C 3.988281 15.722656 3.988281 15.722656 3.960938 15.65625 C 3.96875 15.617188 3.976562 15.578125 3.984375 15.539062 C 3.972656 15.503906 3.972656 15.503906 3.960938 15.46875 C 3.96875 15.460938 3.976562 15.453125 3.984375 15.445312 C 3.988281 15.394531 3.988281 15.34375 3.988281 15.292969 C 3.988281 15.265625 3.988281 15.238281 3.988281 15.210938 C 3.988281 15.140625 3.988281 15.140625 3.960938 15.09375 C 3.96875 15.054688 3.976562 15.015625 3.984375 14.976562 C 3.988281 14.925781 3.988281 14.871094 3.988281 14.820312 C 3.988281 14.804688 3.988281 14.789062 3.988281 14.773438 C 3.988281 14.722656 3.988281 14.671875 3.988281 14.621094 C 3.988281 14.582031 3.988281 14.546875 3.988281 14.507812 C 3.988281 14.410156 3.988281 14.308594 3.988281 14.210938 C 3.988281 14.105469 3.988281 14 3.988281 13.894531 C 3.988281 13.71875 3.988281 13.546875 3.988281 13.371094 C 3.988281 13.167969 3.988281 12.964844 3.988281 12.761719 C 3.988281 12.585938 3.988281 12.410156 3.988281 12.238281 C 3.988281 12.132812 3.988281 12.027344 3.988281 11.925781 C 3.988281 11.828125 3.988281 11.730469 3.988281 11.632812 C 3.988281 11.59375 3.988281 11.558594 3.988281 11.523438 C 3.988281 11.472656 3.988281 11.425781 3.988281 11.375 C 3.988281 11.347656 3.988281 11.320312 3.988281 11.292969 C 3.988281 11.226562 3.988281 11.226562 3.960938 11.15625 C 3.964844 11.140625 3.96875 11.121094 3.972656 11.101562 C 3.988281 11.035156 3.988281 11.035156 3.972656 10.957031 C 3.960938 10.875 3.960938 10.875 3.972656 10.824219 C 3.988281 10.734375 3.988281 10.648438 3.988281 10.558594 C 3.988281 10.539062 3.988281 10.519531 3.988281 10.5 C 3.988281 10.441406 3.984375 10.382812 3.984375 10.320312 C 3.984375 10.28125 3.984375 10.238281 3.984375 10.199219 C 3.984375 10.125 3.984375 10.050781 3.984375 9.976562 C 3.984375 9.878906 3.984375 9.78125 3.984375 9.683594 C 3.984375 9.609375 3.984375 9.535156 3.984375 9.457031 C 3.984375 9.417969 3.984375 9.378906 3.984375 9.339844 C 3.988281 9.28125 3.988281 9.222656 3.988281 9.164062 C 3.988281 9.148438 3.988281 9.128906 3.988281 9.113281 C 3.988281 9.035156 3.984375 8.976562 3.960938 8.90625 C 3.96875 8.867188 3.976562 8.828125 3.984375 8.789062 C 3.992188 8.742188 4 8.695312 4.007812 8.648438 C 3.992188 8.640625 3.976562 8.632812 3.960938 8.625 C 3.964844 8.609375 3.96875 8.59375 3.972656 8.574219 C 3.984375 8.503906 3.988281 8.4375 3.988281 8.363281 C 3.988281 8.332031 3.988281 8.304688 3.988281 8.273438 C 3.988281 8.242188 3.988281 8.210938 3.988281 8.175781 C 3.988281 8.144531 3.988281 8.109375 3.988281 8.074219 C 3.988281 7.984375 3.988281 7.890625 3.988281 7.796875 C 3.988281 7.699219 3.988281 7.605469 3.988281 7.507812 C 3.988281 7.34375 3.988281 7.183594 3.988281 7.019531 C 3.988281 6.832031 3.988281 6.644531 3.988281 6.457031 C 3.988281 6.296875 3.988281 6.136719 3.988281 5.972656 C 3.988281 5.878906 3.988281 5.78125 3.988281 5.683594 C 3.988281 5.59375 3.988281 5.503906 3.988281 5.414062 C 3.988281 5.378906 3.988281 5.347656 3.988281 5.3125 C 3.988281 5.269531 3.988281 5.222656 3.988281 5.179688 C 3.988281 5.152344 3.988281 5.128906 3.988281 5.101562 C 3.988281 5.035156 3.988281 5.035156 3.960938 4.96875 C 3.972656 4.957031 3.972656 4.957031 3.984375 4.945312 C 3.988281 4.882812 3.992188 4.824219 3.992188 4.761719 C 3.992188 4.746094 3.992188 4.726562 3.992188 4.707031 C 3.996094 4.648438 3.996094 4.59375 3.996094 4.535156 C 4 4.496094 4 4.453125 4 4.414062 C 4.003906 4.320312 4.003906 4.222656 4.007812 4.125 Z M 7.5 5.859375 C 7.371094 6.035156 7.292969 6.203125 7.324219 6.421875 C 7.355469 6.554688 7.421875 6.640625 7.523438 6.726562 C 7.664062 6.8125 7.816406 6.820312 7.972656 6.785156 C 8.019531 6.773438 8.019531 6.773438 8.074219 6.746094 C 8.148438 6.722656 8.175781 6.726562 8.25 6.75 C 8.304688 6.785156 8.355469 6.820312 8.40625 6.859375 C 8.542969 6.964844 8.679688 7.0625 8.820312 7.160156 C 8.964844 7.253906 9.105469 7.351562 9.246094 7.453125 C 9.421875 7.578125 9.601562 7.703125 9.78125 7.824219 C 9.851562 7.871094 9.925781 7.921875 9.996094 7.972656 C 10.011719 7.980469 10.027344 7.992188 10.046875 8.003906 C 10.078125 8.027344 10.109375 8.046875 10.136719 8.070312 C 10.210938 8.121094 10.289062 8.171875 10.363281 8.21875 C 10.425781 8.257812 10.484375 8.296875 10.542969 8.34375 C 10.722656 8.476562 10.898438 8.605469 11.132812 8.578125 C 11.296875 8.527344 11.394531 8.449219 11.5 8.316406 C 11.5625 8.183594 11.570312 8.046875 11.53125 7.90625 C 11.4375 7.667969 11.222656 7.539062 11.015625 7.40625 C 10.996094 7.394531 10.976562 7.378906 10.957031 7.367188 C 10.875 7.3125 10.835938 7.289062 10.734375 7.289062 C 10.730469 7.273438 10.730469 7.261719 10.726562 7.246094 C 10.707031 7.179688 10.675781 7.164062 10.621094 7.125 C 10.601562 7.109375 10.582031 7.097656 10.5625 7.082031 C 10.53125 7.0625 10.53125 7.0625 10.5 7.042969 C 10.476562 7.027344 10.457031 7.011719 10.433594 6.996094 C 10.390625 6.96875 10.347656 6.9375 10.304688 6.910156 C 10.234375 6.863281 10.167969 6.816406 10.097656 6.769531 C 9.984375 6.691406 9.871094 6.613281 9.757812 6.535156 C 9.574219 6.410156 9.394531 6.285156 9.210938 6.15625 C 8.867188 5.914062 8.867188 5.914062 8.507812 5.695312 C 8.492188 5.6875 8.480469 5.679688 8.464844 5.671875 C 8.160156 5.527344 7.726562 5.617188 7.5 5.859375 Z M 15.421875 5.71875 C 15.414062 5.734375 15.40625 5.75 15.398438 5.765625 C 15.375 5.773438 15.375 5.773438 15.351562 5.785156 C 15.257812 5.824219 15.179688 5.878906 15.097656 5.941406 C 15.0625 5.964844 15.027344 5.992188 14.992188 6.015625 C 14.972656 6.03125 14.953125 6.042969 14.9375 6.054688 C 14.855469 6.113281 14.773438 6.167969 14.695312 6.222656 C 14.671875 6.238281 14.671875 6.238281 14.648438 6.257812 C 14.617188 6.277344 14.585938 6.296875 14.554688 6.320312 C 14.476562 6.375 14.398438 6.425781 14.320312 6.480469 C 14.226562 6.542969 14.136719 6.609375 14.042969 6.671875 C 13.847656 6.804688 13.65625 6.9375 13.464844 7.074219 C 13.339844 7.160156 13.214844 7.246094 13.089844 7.332031 C 13.078125 7.34375 13.0625 7.351562 13.046875 7.363281 C 12.972656 7.414062 12.902344 7.460938 12.828125 7.511719 C 12.601562 7.652344 12.601562 7.652344 12.480469 7.878906 C 12.476562 7.925781 12.472656 7.96875 12.46875 8.015625 C 12.457031 8.039062 12.457031 8.039062 12.445312 8.0625 C 12.453125 8.113281 12.453125 8.113281 12.46875 8.171875 C 12.472656 8.191406 12.476562 8.210938 12.480469 8.230469 C 12.484375 8.242188 12.488281 8.257812 12.492188 8.273438 C 12.507812 8.273438 12.523438 8.273438 12.539062 8.273438 C 12.539062 8.296875 12.539062 8.296875 12.539062 8.324219 C 12.574219 8.425781 12.640625 8.472656 12.726562 8.53125 C 12.832031 8.582031 12.9375 8.601562 13.054688 8.578125 C 13.253906 8.5 13.417969 8.386719 13.578125 8.25 C 13.640625 8.203125 13.699219 8.164062 13.761719 8.125 C 13.867188 8.058594 13.96875 7.992188 14.066406 7.921875 C 14.148438 7.863281 14.226562 7.8125 14.308594 7.757812 C 14.476562 7.644531 14.644531 7.527344 14.8125 7.410156 C 14.859375 7.378906 14.90625 7.34375 14.953125 7.3125 C 15.027344 7.261719 15.101562 7.210938 15.175781 7.160156 C 15.199219 7.144531 15.21875 7.132812 15.238281 7.117188 C 15.257812 7.105469 15.277344 7.089844 15.300781 7.078125 C 15.316406 7.066406 15.335938 7.054688 15.351562 7.039062 C 15.402344 7.007812 15.402344 7.007812 15.445312 6.960938 C 15.507812 6.917969 15.574219 6.878906 15.636719 6.839844 C 15.675781 6.8125 15.714844 6.789062 15.75 6.761719 C 15.789062 6.734375 15.789062 6.734375 15.867188 6.703125 C 15.941406 6.742188 15.941406 6.742188 15.980469 6.773438 C 16.101562 6.832031 16.28125 6.816406 16.40625 6.773438 C 16.535156 6.703125 16.605469 6.625 16.664062 6.492188 C 16.695312 6.371094 16.699219 6.277344 16.640625 6.164062 C 16.640625 6.144531 16.636719 6.128906 16.632812 6.109375 C 16.589844 5.949219 16.449219 5.808594 16.3125 5.71875 C 16.035156 5.570312 15.703125 5.582031 15.421875 5.71875 Z M 9.398438 8.085938 C 9.382812 8.101562 9.367188 8.117188 9.351562 8.132812 C 9.351562 8.125 9.351562 8.117188 9.351562 8.109375 C 9.203125 8.101562 9.089844 8.121094 8.953125 8.179688 C 8.945312 8.1875 8.9375 8.195312 8.929688 8.203125 C 8.910156 8.207031 8.890625 8.210938 8.871094 8.21875 C 8.617188 8.316406 8.40625 8.546875 8.296875 8.789062 C 8.15625 9.136719 8.152344 9.464844 8.28125 9.8125 C 8.433594 10.144531 8.667969 10.347656 9 10.476562 C 9.128906 10.515625 9.246094 10.53125 9.382812 10.53125 C 9.398438 10.53125 9.414062 10.53125 9.433594 10.53125 C 9.734375 10.523438 10.023438 10.425781 10.246094 10.21875 C 10.453125 9.992188 10.59375 9.730469 10.617188 9.421875 C 10.617188 9.40625 10.621094 9.390625 10.621094 9.371094 C 10.636719 9.078125 10.535156 8.8125 10.359375 8.578125 C 10.34375 8.554688 10.34375 8.554688 10.324219 8.53125 C 10.113281 8.261719 9.792969 8.132812 9.464844 8.085938 C 9.445312 8.085938 9.421875 8.085938 9.398438 8.085938 Z M 14.0625 8.226562 C 14.042969 8.238281 14.019531 8.25 14 8.261719 C 13.703125 8.4375 13.515625 8.691406 13.410156 9.015625 C 13.324219 9.378906 13.410156 9.722656 13.601562 10.035156 C 13.765625 10.277344 14.03125 10.445312 14.316406 10.515625 C 14.410156 10.53125 14.503906 10.53125 14.597656 10.53125 C 14.621094 10.53125 14.640625 10.53125 14.660156 10.53125 C 14.808594 10.527344 14.933594 10.511719 15.070312 10.453125 C 15.085938 10.445312 15.101562 10.441406 15.117188 10.433594 C 15.398438 10.3125 15.613281 10.078125 15.734375 9.796875 C 15.851562 9.46875 15.855469 9.136719 15.722656 8.8125 C 15.589844 8.554688 15.382812 8.328125 15.117188 8.203125 C 15.09375 8.191406 15.066406 8.179688 15.039062 8.167969 C 14.730469 8.035156 14.351562 8.066406 14.0625 8.226562 Z M 17.289062 11 C 17.265625 11.03125 17.265625 11.03125 17.238281 11.0625 C 17.132812 11.191406 17.023438 11.316406 16.914062 11.441406 C 16.75 11.628906 16.585938 11.820312 16.425781 12.011719 C 16.355469 12.09375 16.285156 12.175781 16.214844 12.253906 C 16.160156 12.320312 16.105469 12.382812 16.050781 12.449219 C 15.957031 12.554688 15.867188 12.664062 15.773438 12.773438 C 15.757812 12.792969 15.757812 12.792969 15.738281 12.8125 C 15.679688 12.882812 15.621094 12.953125 15.558594 13.023438 C 15.453125 13.148438 15.347656 13.269531 15.242188 13.398438 C 15.152344 13.507812 15.058594 13.613281 14.964844 13.714844 C 14.890625 13.800781 14.816406 13.886719 14.746094 13.976562 C 14.695312 14.039062 14.644531 14.097656 14.589844 14.15625 C 14.515625 14.238281 14.445312 14.316406 14.378906 14.402344 C 14.292969 14.507812 14.207031 14.605469 14.117188 14.707031 C 14.0625 14.769531 14.007812 14.832031 13.957031 14.894531 C 13.890625 14.980469 13.820312 15.058594 13.746094 15.140625 C 13.652344 15.242188 13.566406 15.347656 13.480469 15.453125 C 13.421875 15.527344 13.359375 15.597656 13.292969 15.667969 C 13.261719 15.703125 13.261719 15.703125 13.265625 15.75 C 13.242188 15.757812 13.21875 15.765625 13.195312 15.773438 C 13.160156 15.8125 13.128906 15.847656 13.097656 15.890625 C 13.027344 15.976562 12.957031 16.066406 12.878906 16.148438 C 12.789062 16.25 12.703125 16.351562 12.617188 16.460938 C 12.546875 16.542969 12.472656 16.625 12.398438 16.707031 C 12.355469 16.753906 12.320312 16.800781 12.28125 16.851562 C 12.269531 16.863281 12.253906 16.875 12.242188 16.890625 C 12.207031 16.921875 12.207031 16.921875 12.210938 16.96875 C 12.195312 16.96875 12.179688 16.96875 12.164062 16.96875 C 12.132812 17.003906 12.097656 17.042969 12.070312 17.082031 C 11.980469 17.195312 11.886719 17.300781 11.789062 17.410156 C 11.734375 17.472656 11.679688 17.535156 11.625 17.601562 C 11.535156 17.566406 11.496094 17.511719 11.4375 17.4375 C 11.367188 17.363281 11.292969 17.296875 11.214844 17.226562 C 11.09375 17.117188 10.976562 17 10.859375 16.882812 C 10.824219 16.847656 10.785156 16.8125 10.75 16.773438 C 10.648438 16.671875 10.546875 16.570312 10.445312 16.46875 C 10.382812 16.402344 10.320312 16.339844 10.257812 16.277344 C 10.234375 16.253906 10.210938 16.230469 10.1875 16.207031 C 10.152344 16.171875 10.121094 16.140625 10.085938 16.105469 C 10.058594 16.078125 10.058594 16.078125 10.03125 16.046875 C 9.988281 16.003906 9.988281 16.003906 9.9375 16.007812 C 9.929688 15.984375 9.921875 15.960938 9.914062 15.9375 C 9.875 15.929688 9.835938 15.921875 9.796875 15.914062 C 9.796875 15.890625 9.796875 15.867188 9.796875 15.84375 C 9.746094 15.785156 9.746094 15.785156 9.679688 15.726562 C 9.640625 15.6875 9.601562 15.648438 9.5625 15.609375 C 9.535156 15.582031 9.503906 15.550781 9.476562 15.523438 C 9.257812 15.304688 9.042969 15.089844 8.828125 14.875 C 8.804688 14.851562 8.804688 14.851562 8.78125 14.828125 C 8.75 14.796875 8.71875 14.761719 8.6875 14.730469 C 8.652344 14.691406 8.652344 14.691406 8.601562 14.695312 C 8.601562 14.679688 8.601562 14.664062 8.601562 14.648438 C 8.585938 14.648438 8.570312 14.648438 8.554688 14.648438 C 8.554688 14.632812 8.554688 14.617188 8.554688 14.601562 C 8.515625 14.570312 8.476562 14.539062 8.4375 14.507812 C 8.429688 14.492188 8.421875 14.476562 8.414062 14.460938 C 8.398438 14.460938 8.382812 14.460938 8.367188 14.460938 C 8.367188 14.445312 8.367188 14.429688 8.367188 14.414062 C 8.332031 14.378906 8.332031 14.378906 8.285156 14.339844 C 8.179688 14.253906 8.085938 14.15625 7.988281 14.058594 C 7.953125 14.023438 7.917969 13.988281 7.882812 13.953125 C 7.828125 13.894531 7.773438 13.839844 7.714844 13.785156 C 7.664062 13.730469 7.609375 13.675781 7.554688 13.621094 C 7.539062 13.605469 7.523438 13.585938 7.503906 13.570312 C 7.488281 13.554688 7.472656 13.539062 7.457031 13.523438 C 7.445312 13.511719 7.429688 13.496094 7.417969 13.480469 C 7.382812 13.449219 7.382812 13.449219 7.335938 13.453125 C 7.332031 13.441406 7.328125 13.425781 7.320312 13.414062 C 7.273438 13.335938 7.226562 13.308594 7.148438 13.265625 C 7.09375 13.253906 7.039062 13.25 6.984375 13.246094 C 6.9375 13.242188 6.9375 13.242188 6.890625 13.21875 C 6.738281 13.246094 6.621094 13.292969 6.515625 13.40625 C 6.433594 13.527344 6.382812 13.660156 6.40625 13.808594 C 6.46875 14.039062 6.667969 14.195312 6.832031 14.359375 C 6.851562 14.378906 6.867188 14.394531 6.886719 14.414062 C 6.925781 14.453125 6.964844 14.492188 7.003906 14.53125 C 7.0625 14.589844 7.121094 14.648438 7.179688 14.710938 C 7.21875 14.746094 7.253906 14.785156 7.292969 14.820312 C 7.3125 14.839844 7.328125 14.859375 7.347656 14.875 C 7.363281 14.890625 7.378906 14.910156 7.394531 14.925781 C 7.410156 14.941406 7.425781 14.953125 7.441406 14.96875 C 7.472656 15.003906 7.472656 15.003906 7.523438 15 C 7.53125 15.015625 7.535156 15.03125 7.542969 15.046875 C 7.566406 15.101562 7.566406 15.101562 7.640625 15.117188 C 7.648438 15.140625 7.65625 15.164062 7.664062 15.1875 C 7.699219 15.222656 7.699219 15.222656 7.742188 15.253906 C 7.832031 15.332031 7.914062 15.410156 7.996094 15.496094 C 8.007812 15.507812 8.023438 15.519531 8.035156 15.535156 C 8.089844 15.589844 8.140625 15.640625 8.195312 15.695312 C 8.234375 15.734375 8.273438 15.777344 8.3125 15.816406 C 8.324219 15.828125 8.335938 15.839844 8.347656 15.851562 C 8.375 15.882812 8.40625 15.910156 8.4375 15.9375 C 8.453125 15.9375 8.46875 15.9375 8.484375 15.9375 C 8.488281 15.949219 8.492188 15.960938 8.5 15.976562 C 8.546875 16.054688 8.613281 16.113281 8.683594 16.175781 C 8.859375 16.335938 9.03125 16.507812 9.203125 16.679688 C 9.230469 16.707031 9.253906 16.730469 9.28125 16.757812 C 9.390625 16.867188 9.5 16.976562 9.609375 17.085938 C 9.675781 17.15625 9.742188 17.222656 9.808594 17.289062 C 9.835938 17.316406 9.859375 17.339844 9.886719 17.367188 C 9.921875 17.402344 9.957031 17.4375 9.992188 17.472656 C 10.011719 17.496094 10.03125 17.515625 10.054688 17.535156 C 10.097656 17.582031 10.097656 17.582031 10.148438 17.578125 C 10.15625 17.601562 10.164062 17.625 10.171875 17.648438 C 10.210938 17.6875 10.210938 17.6875 10.257812 17.726562 C 10.382812 17.832031 10.492188 17.945312 10.605469 18.0625 C 10.675781 18.132812 10.746094 18.203125 10.816406 18.273438 C 10.851562 18.3125 10.890625 18.347656 10.925781 18.386719 C 10.976562 18.441406 11.03125 18.492188 11.085938 18.546875 C 11.101562 18.5625 11.117188 18.582031 11.132812 18.597656 C 11.285156 18.75 11.4375 18.835938 11.65625 18.847656 C 11.890625 18.839844 12.027344 18.707031 12.183594 18.542969 C 12.261719 18.453125 12.332031 18.363281 12.40625 18.273438 C 12.492188 18.167969 12.582031 18.066406 12.675781 17.964844 C 12.746094 17.886719 12.8125 17.8125 12.878906 17.730469 C 12.953125 17.636719 13.03125 17.546875 13.113281 17.460938 C 13.214844 17.351562 13.308594 17.238281 13.402344 17.125 C 13.453125 17.0625 13.503906 17.003906 13.558594 16.945312 C 13.632812 16.863281 13.703125 16.785156 13.769531 16.699219 C 13.855469 16.59375 13.941406 16.496094 14.03125 16.394531 C 14.085938 16.332031 14.140625 16.269531 14.191406 16.207031 C 14.277344 16.101562 14.363281 16.003906 14.457031 15.902344 C 14.507812 15.84375 14.5625 15.78125 14.613281 15.714844 C 14.703125 15.605469 14.796875 15.5 14.894531 15.394531 C 14.96875 15.308594 15.042969 15.222656 15.113281 15.132812 C 15.164062 15.070312 15.214844 15.011719 15.269531 14.953125 C 15.34375 14.871094 15.414062 14.792969 15.480469 14.707031 C 15.566406 14.601562 15.652344 14.503906 15.746094 14.402344 C 15.796875 14.34375 15.851562 14.28125 15.902344 14.214844 C 15.992188 14.105469 16.085938 14 16.183594 13.894531 C 16.257812 13.808594 16.332031 13.722656 16.402344 13.632812 C 16.453125 13.570312 16.503906 13.511719 16.558594 13.453125 C 16.628906 13.375 16.695312 13.300781 16.757812 13.21875 C 16.839844 13.113281 16.933594 13.011719 17.027344 12.910156 C 17.101562 12.824219 17.171875 12.738281 17.246094 12.648438 C 17.3125 12.566406 17.382812 12.488281 17.457031 12.410156 C 17.507812 12.351562 17.5625 12.289062 17.613281 12.222656 C 17.683594 12.136719 17.757812 12.050781 17.835938 11.964844 C 17.929688 11.859375 18.023438 11.753906 18.109375 11.644531 C 18.148438 11.597656 18.1875 11.550781 18.226562 11.503906 C 18.242188 11.484375 18.242188 11.484375 18.261719 11.464844 C 18.289062 11.429688 18.320312 11.394531 18.351562 11.359375 C 18.464844 11.210938 18.460938 11.082031 18.445312 10.898438 C 18.40625 10.753906 18.3125 10.652344 18.1875 10.570312 C 17.773438 10.371094 17.527344 10.707031 17.289062 11 Z M 17.289062 11 "/>
<path style=" stroke:none;fill-rule:nonzero;fill:rgb(13.333334%,19.215687%,10.196079%);fill-opacity:1;" d="M 20.695312 19.242188 C 20.742188 19.257812 20.742188 19.257812 20.789062 19.289062 C 20.820312 19.382812 20.8125 19.472656 20.8125 19.570312 C 20.816406 19.597656 20.816406 19.597656 20.824219 19.621094 C 20.839844 19.707031 20.839844 19.792969 20.839844 19.878906 C 20.839844 19.898438 20.839844 19.914062 20.839844 19.933594 C 20.839844 19.972656 20.839844 20.011719 20.839844 20.050781 C 20.839844 20.109375 20.839844 20.167969 20.839844 20.226562 C 20.839844 20.265625 20.839844 20.300781 20.839844 20.339844 C 20.839844 20.355469 20.839844 20.375 20.84375 20.390625 C 20.839844 20.488281 20.828125 20.558594 20.789062 20.648438 C 18.859375 20.65625 16.933594 20.664062 11.234375 20.675781 C 11.183594 20.675781 11.132812 20.675781 11.078125 20.675781 C 9.117188 20.675781 7.152344 20.671875 3.210938 20.648438 C 3.171875 20.539062 3.160156 20.453125 3.160156 20.335938 C 3.160156 20.320312 3.160156 20.300781 3.160156 20.285156 C 3.164062 19.960938 3.175781 19.636719 3.1875 19.3125 C 3.269531 19.300781 3.269531 19.300781 3.351562 19.289062 C 3.351562 19.304688 3.351562 19.320312 3.351562 19.335938 C 3.375 19.335938 3.398438 19.335938 3.421875 19.335938 C 3.4375 19.367188 3.453125 19.394531 3.46875 19.425781 C 3.476562 19.441406 3.484375 19.457031 3.492188 19.476562 C 3.515625 19.523438 3.515625 19.523438 3.539062 19.59375 C 3.554688 19.59375 3.570312 19.59375 3.585938 19.59375 C 3.59375 19.617188 3.601562 19.640625 3.609375 19.664062 C 3.601562 19.679688 3.59375 19.695312 3.585938 19.710938 C 3.585938 19.78125 3.585938 19.78125 3.609375 19.851562 C 3.648438 19.875 3.6875 19.898438 3.726562 19.921875 C 3.726562 19.953125 3.726562 19.984375 3.726562 20.015625 C 3.75 20.023438 3.769531 20.03125 3.792969 20.039062 C 3.855469 20.058594 3.902344 20.078125 3.957031 20.109375 C 4.011719 20.140625 4.011719 20.140625 4.101562 20.132812 C 4.125 20.144531 4.125 20.144531 4.148438 20.15625 C 4.148438 20.179688 4.148438 20.203125 4.148438 20.226562 C 4.179688 20.226562 4.210938 20.226562 4.242188 20.226562 C 4.273438 20.234375 4.304688 20.242188 4.335938 20.25 C 4.335938 20.265625 4.335938 20.28125 4.335938 20.296875 C 4.355469 20.292969 4.375 20.289062 4.398438 20.285156 C 4.480469 20.273438 4.546875 20.28125 4.632812 20.296875 C 4.726562 20.316406 4.726562 20.316406 4.824219 20.308594 C 4.882812 20.292969 4.9375 20.292969 5 20.292969 C 5.035156 20.292969 5.035156 20.292969 5.070312 20.292969 C 5.09375 20.292969 5.121094 20.292969 5.144531 20.292969 C 5.179688 20.292969 5.179688 20.292969 5.21875 20.292969 C 5.242188 20.292969 5.265625 20.292969 5.289062 20.292969 C 5.3125 20.292969 5.332031 20.292969 5.355469 20.292969 C 5.410156 20.296875 5.457031 20.304688 5.507812 20.320312 C 5.519531 20.296875 5.519531 20.296875 5.53125 20.273438 C 5.617188 20.273438 5.703125 20.273438 5.789062 20.273438 C 5.796875 20.289062 5.804688 20.304688 5.8125 20.320312 C 5.835938 20.3125 5.863281 20.304688 5.886719 20.296875 C 6.128906 20.230469 6.128906 20.230469 6.257812 20.296875 C 6.320312 20.277344 6.320312 20.277344 6.375 20.25 C 6.390625 20.265625 6.40625 20.28125 6.421875 20.296875 C 6.460938 20.28125 6.5 20.265625 6.539062 20.25 C 6.546875 20.273438 6.554688 20.296875 6.5625 20.320312 C 6.589844 20.3125 6.613281 20.304688 6.640625 20.296875 C 6.714844 20.277344 6.769531 20.273438 6.84375 20.273438 C 6.882812 20.265625 6.921875 20.257812 6.960938 20.25 C 6.960938 20.265625 6.960938 20.28125 6.960938 20.296875 C 6.976562 20.296875 6.992188 20.296875 7.007812 20.296875 C 7.007812 20.28125 7.007812 20.265625 7.007812 20.25 C 7.042969 20.253906 7.078125 20.257812 7.113281 20.261719 C 7.132812 20.261719 7.152344 20.265625 7.171875 20.265625 C 7.21875 20.273438 7.21875 20.273438 7.242188 20.296875 C 7.25 20.28125 7.257812 20.265625 7.265625 20.25 C 7.28125 20.257812 7.296875 20.265625 7.316406 20.277344 C 7.402344 20.300781 7.441406 20.28125 7.523438 20.25 C 7.578125 20.257812 7.578125 20.257812 7.640625 20.273438 C 7.773438 20.300781 7.773438 20.300781 7.898438 20.25 C 7.992188 20.25 7.992188 20.25 8.0625 20.277344 C 8.085938 20.285156 8.109375 20.289062 8.132812 20.296875 C 8.1875 20.269531 8.1875 20.269531 8.226562 20.226562 C 8.242188 20.242188 8.257812 20.257812 8.273438 20.273438 C 8.332031 20.292969 8.332031 20.292969 8.390625 20.296875 C 8.414062 20.28125 8.4375 20.265625 8.460938 20.25 C 8.476562 20.265625 8.492188 20.28125 8.507812 20.296875 C 8.539062 20.273438 8.570312 20.25 8.601562 20.226562 C 8.601562 20.242188 8.601562 20.257812 8.601562 20.273438 C 8.65625 20.289062 8.65625 20.289062 8.71875 20.296875 C 8.742188 20.28125 8.765625 20.265625 8.789062 20.25 C 8.804688 20.257812 8.820312 20.265625 8.835938 20.273438 C 8.835938 20.289062 8.835938 20.304688 8.835938 20.320312 C 8.851562 20.320312 8.867188 20.320312 8.882812 20.320312 C 8.890625 20.304688 8.898438 20.289062 8.90625 20.273438 C 8.929688 20.28125 8.953125 20.289062 8.976562 20.296875 C 9.015625 20.296875 9.054688 20.296875 9.09375 20.296875 C 9.117188 20.296875 9.140625 20.296875 9.164062 20.296875 C 9.261719 20.285156 9.261719 20.285156 9.351562 20.25 C 9.40625 20.265625 9.460938 20.28125 9.515625 20.296875 C 9.523438 20.273438 9.53125 20.25 9.539062 20.226562 C 9.554688 20.242188 9.570312 20.257812 9.585938 20.273438 C 9.578125 20.289062 9.570312 20.304688 9.5625 20.320312 C 9.582031 20.3125 9.605469 20.304688 9.625 20.296875 C 9.703125 20.273438 9.742188 20.273438 9.820312 20.296875 C 9.828125 20.28125 9.835938 20.265625 9.84375 20.25 C 9.859375 20.265625 9.875 20.28125 9.890625 20.296875 C 9.914062 20.296875 9.9375 20.296875 9.960938 20.296875 C 10 20.296875 10.035156 20.296875 10.074219 20.296875 C 10.117188 20.296875 10.164062 20.296875 10.207031 20.296875 C 10.242188 20.296875 10.242188 20.296875 10.277344 20.300781 C 10.300781 20.300781 10.320312 20.300781 10.34375 20.300781 C 10.363281 20.300781 10.382812 20.300781 10.402344 20.300781 C 10.453125 20.300781 10.453125 20.300781 10.5 20.273438 C 10.5 20.289062 10.5 20.304688 10.5 20.320312 C 10.523438 20.316406 10.523438 20.316406 10.542969 20.316406 C 10.570312 20.3125 10.570312 20.3125 10.601562 20.308594 C 10.621094 20.304688 10.636719 20.304688 10.65625 20.300781 C 10.769531 20.292969 10.882812 20.296875 10.992188 20.296875 C 11.011719 20.296875 11.027344 20.296875 11.046875 20.296875 C 11.078125 20.296875 11.078125 20.296875 11.109375 20.296875 C 11.136719 20.296875 11.136719 20.296875 11.167969 20.292969 C 11.222656 20.296875 11.269531 20.304688 11.320312 20.320312 C 11.328125 20.304688 11.335938 20.289062 11.34375 20.273438 C 11.359375 20.296875 11.375 20.320312 11.390625 20.34375 C 11.398438 20.328125 11.40625 20.3125 11.414062 20.296875 C 11.449219 20.296875 11.480469 20.296875 11.515625 20.296875 C 11.535156 20.296875 11.550781 20.292969 11.570312 20.292969 C 11.625 20.296875 11.625 20.296875 11.695312 20.320312 C 11.703125 20.304688 11.710938 20.289062 11.71875 20.273438 C 11.773438 20.285156 11.828125 20.300781 11.882812 20.320312 C 11.898438 20.316406 11.914062 20.3125 11.929688 20.308594 C 11.992188 20.292969 12.015625 20.308594 12.070312 20.34375 C 12.078125 20.351562 12.085938 20.359375 12.09375 20.367188 C 12.101562 20.34375 12.109375 20.320312 12.117188 20.296875 C 12.125 20.304688 12.132812 20.3125 12.140625 20.320312 C 12.195312 20.316406 12.246094 20.308594 12.300781 20.300781 C 12.351562 20.296875 12.351562 20.296875 12.421875 20.320312 C 12.460938 20.3125 12.5 20.304688 12.539062 20.296875 C 12.578125 20.296875 12.617188 20.296875 12.65625 20.296875 C 12.679688 20.296875 12.703125 20.296875 12.726562 20.296875 C 12.742188 20.304688 12.757812 20.3125 12.773438 20.320312 C 12.832031 20.347656 12.851562 20.339844 12.914062 20.320312 C 12.941406 20.316406 12.96875 20.3125 13 20.308594 C 13.074219 20.300781 13.074219 20.300781 13.125 20.273438 C 13.125 20.289062 13.125 20.304688 13.125 20.320312 C 13.140625 20.316406 13.15625 20.3125 13.171875 20.304688 C 13.269531 20.292969 13.355469 20.316406 13.453125 20.34375 C 13.460938 20.328125 13.46875 20.3125 13.476562 20.296875 C 13.652344 20.292969 13.652344 20.292969 13.714844 20.3125 C 13.777344 20.324219 13.820312 20.300781 13.875 20.273438 C 13.875 20.289062 13.875 20.304688 13.875 20.320312 C 13.96875 20.296875 13.96875 20.296875 14.0625 20.273438 C 14.0625 20.289062 14.0625 20.304688 14.0625 20.320312 C 14.183594 20.308594 14.183594 20.308594 14.300781 20.28125 C 14.34375 20.273438 14.34375 20.273438 14.414062 20.296875 C 14.492188 20.324219 14.519531 20.316406 14.601562 20.296875 C 14.695312 20.292969 14.777344 20.296875 14.871094 20.308594 C 14.960938 20.320312 15.03125 20.316406 15.117188 20.296875 C 15.132812 20.273438 15.148438 20.25 15.164062 20.226562 C 15.171875 20.25 15.179688 20.273438 15.1875 20.296875 C 15.285156 20.300781 15.285156 20.300781 15.375 20.273438 C 15.375 20.289062 15.375 20.304688 15.375 20.320312 C 15.394531 20.3125 15.410156 20.304688 15.429688 20.296875 C 15.492188 20.273438 15.492188 20.273438 15.5625 20.273438 C 15.578125 20.28125 15.59375 20.289062 15.609375 20.296875 C 15.636719 20.292969 15.664062 20.289062 15.691406 20.285156 C 15.773438 20.273438 15.773438 20.273438 15.84375 20.296875 C 15.851562 20.289062 15.859375 20.28125 15.867188 20.273438 C 15.914062 20.273438 15.960938 20.273438 16.007812 20.273438 C 16.058594 20.277344 16.058594 20.277344 16.125 20.25 C 16.125 20.265625 16.125 20.28125 16.125 20.296875 C 16.144531 20.292969 16.160156 20.289062 16.179688 20.285156 C 16.257812 20.269531 16.304688 20.269531 16.382812 20.296875 C 16.445312 20.289062 16.445312 20.289062 16.5 20.273438 C 16.5 20.289062 16.5 20.304688 16.5 20.320312 C 16.523438 20.316406 16.550781 20.3125 16.578125 20.308594 C 16.652344 20.296875 16.6875 20.300781 16.757812 20.320312 C 16.773438 20.316406 16.789062 20.3125 16.804688 20.308594 C 16.851562 20.296875 16.851562 20.296875 16.894531 20.308594 C 16.96875 20.324219 17.015625 20.296875 17.085938 20.273438 C 17.132812 20.273438 17.179688 20.273438 17.226562 20.273438 C 17.242188 20.265625 17.257812 20.257812 17.273438 20.25 C 17.289062 20.265625 17.304688 20.28125 17.320312 20.296875 C 17.351562 20.28125 17.382812 20.265625 17.414062 20.25 C 17.421875 20.265625 17.429688 20.28125 17.4375 20.296875 C 17.523438 20.300781 17.523438 20.300781 17.578125 20.28125 C 17.59375 20.277344 17.609375 20.277344 17.625 20.273438 C 17.664062 20.308594 17.664062 20.308594 17.695312 20.34375 C 17.710938 20.328125 17.726562 20.3125 17.742188 20.296875 C 17.792969 20.292969 17.792969 20.292969 17.855469 20.292969 C 17.875 20.292969 17.898438 20.292969 17.917969 20.292969 C 17.976562 20.296875 17.976562 20.296875 18.027344 20.3125 C 18.078125 20.328125 18.078125 20.328125 18.140625 20.273438 C 18.179688 20.289062 18.21875 20.304688 18.257812 20.320312 C 18.273438 20.3125 18.289062 20.304688 18.304688 20.296875 C 18.367188 20.292969 18.429688 20.292969 18.492188 20.296875 C 18.5 20.304688 18.507812 20.3125 18.515625 20.320312 C 18.5625 20.316406 18.609375 20.308594 18.65625 20.304688 C 18.714844 20.296875 18.769531 20.296875 18.828125 20.296875 C 18.890625 20.296875 18.945312 20.285156 19.007812 20.273438 C 19.023438 20.273438 19.039062 20.273438 19.054688 20.273438 C 19.070312 20.257812 19.085938 20.242188 19.101562 20.226562 C 19.117188 20.25 19.132812 20.273438 19.148438 20.296875 C 19.175781 20.292969 19.199219 20.289062 19.226562 20.285156 C 19.3125 20.273438 19.3125 20.273438 19.382812 20.273438 C 19.398438 20.265625 19.414062 20.257812 19.429688 20.25 C 19.445312 20.242188 19.460938 20.234375 19.476562 20.226562 C 19.476562 20.242188 19.476562 20.257812 19.476562 20.273438 C 19.523438 20.257812 19.570312 20.242188 19.617188 20.226562 C 19.601562 20.21875 19.585938 20.210938 19.570312 20.203125 C 19.59375 20.203125 19.617188 20.203125 19.640625 20.203125 C 19.734375 20.175781 19.785156 20.132812 19.851562 20.0625 C 19.859375 20.070312 19.867188 20.078125 19.875 20.085938 C 19.921875 20.078125 19.921875 20.078125 19.96875 20.0625 C 19.96875 20.046875 19.96875 20.03125 19.96875 20.015625 C 20.027344 20.027344 20.027344 20.027344 20.085938 20.039062 C 20.085938 20.023438 20.085938 20.007812 20.085938 19.992188 C 20.109375 19.992188 20.132812 19.992188 20.15625 19.992188 C 20.160156 19.980469 20.160156 19.96875 20.164062 19.957031 C 20.183594 19.882812 20.207031 19.808594 20.226562 19.734375 C 20.234375 19.734375 20.242188 19.734375 20.25 19.734375 C 20.25 19.78125 20.25 19.828125 20.25 19.875 C 20.265625 19.867188 20.28125 19.859375 20.296875 19.851562 C 20.296875 19.828125 20.296875 19.804688 20.296875 19.78125 C 20.320312 19.71875 20.34375 19.664062 20.378906 19.609375 C 20.421875 19.546875 20.421875 19.546875 20.417969 19.464844 C 20.4375 19.382812 20.4375 19.382812 20.484375 19.351562 C 20.621094 19.289062 20.621094 19.289062 20.695312 19.289062 C 20.695312 19.273438 20.695312 19.257812 20.695312 19.242188 Z M 3.515625 19.59375 C 3.515625 19.617188 3.515625 19.640625 3.515625 19.664062 C 3.53125 19.664062 3.546875 19.664062 3.5625 19.664062 C 3.554688 19.640625 3.546875 19.617188 3.539062 19.59375 C 3.53125 19.59375 3.523438 19.59375 3.515625 19.59375 Z M 20.109375 20.015625 C 20.101562 20.03125 20.09375 20.046875 20.085938 20.0625 C 20.101562 20.0625 20.117188 20.0625 20.132812 20.0625 C 20.125 20.046875 20.117188 20.03125 20.109375 20.015625 Z M 5.625 20.296875 C 5.71875 20.320312 5.71875 20.320312 5.71875 20.320312 Z M 11.25 20.34375 C 11.273438 20.390625 11.273438 20.390625 11.273438 20.390625 Z M 12.140625 20.367188 C 12.15625 20.382812 12.171875 20.398438 12.1875 20.414062 C 12.1875 20.398438 12.1875 20.382812 12.1875 20.367188 C 12.171875 20.367188 12.15625 20.367188 12.140625 20.367188 Z M 12.140625 20.367188 "/>
<path style=" stroke:none;fill-rule:nonzero;fill:rgb(34.117648%,50.196081%,26.666668%);fill-opacity:1;" d="M 4.007812 4.125 C 4.082031 4.125 4.152344 4.132812 4.226562 4.144531 C 4.292969 4.152344 4.292969 4.152344 4.382812 4.136719 C 4.511719 4.121094 4.636719 4.121094 4.765625 4.121094 C 4.804688 4.121094 4.804688 4.121094 4.84375 4.121094 C 4.933594 4.121094 5.023438 4.121094 5.109375 4.121094 C 5.171875 4.121094 5.238281 4.121094 5.300781 4.121094 C 5.4375 4.121094 5.578125 4.121094 5.714844 4.121094 C 5.921875 4.121094 6.128906 4.121094 6.332031 4.121094 C 6.699219 4.121094 7.066406 4.121094 7.4375 4.121094 C 7.757812 4.121094 8.078125 4.121094 8.402344 4.121094 C 8.433594 4.121094 8.433594 4.121094 8.464844 4.121094 C 8.550781 4.121094 8.636719 4.121094 8.726562 4.121094 C 9.535156 4.121094 10.347656 4.121094 11.160156 4.121094 C 11.882812 4.121094 12.605469 4.121094 13.324219 4.121094 C 14.136719 4.121094 14.945312 4.121094 15.757812 4.121094 C 15.84375 4.121094 15.929688 4.121094 16.015625 4.121094 C 16.039062 4.121094 16.058594 4.121094 16.082031 4.121094 C 16.402344 4.121094 16.722656 4.121094 17.046875 4.121094 C 17.410156 4.121094 17.777344 4.121094 18.140625 4.121094 C 18.347656 4.121094 18.550781 4.121094 18.753906 4.121094 C 18.890625 4.121094 19.027344 4.121094 19.164062 4.121094 C 19.242188 4.121094 19.320312 4.121094 19.398438 4.121094 C 19.484375 4.121094 19.566406 4.121094 19.648438 4.121094 C 19.675781 4.121094 19.699219 4.121094 19.722656 4.121094 C 19.757812 4.121094 19.757812 4.121094 19.792969 4.121094 C 19.808594 4.121094 19.828125 4.121094 19.847656 4.121094 C 19.898438 4.125 19.898438 4.125 19.96875 4.148438 C 19.988281 4.527344 19.996094 4.90625 19.996094 5.285156 C 19.996094 5.347656 19.996094 5.40625 19.996094 5.46875 C 19.996094 5.601562 19.996094 5.730469 19.996094 5.863281 C 19.996094 6.058594 19.996094 6.257812 19.996094 6.453125 C 19.996094 6.78125 19.996094 7.113281 19.992188 7.445312 C 19.992188 7.894531 19.992188 8.347656 19.992188 8.796875 C 19.992188 9.007812 19.992188 9.21875 19.992188 9.429688 C 19.992188 9.449219 19.992188 9.472656 19.992188 9.492188 C 19.992188 9.992188 19.992188 10.492188 19.992188 10.996094 C 19.992188 11.015625 19.992188 11.039062 19.992188 11.0625 C 19.992188 11.394531 19.992188 11.726562 19.992188 12.058594 C 19.992188 12.414062 19.992188 12.769531 19.992188 13.125 C 19.992188 13.148438 19.992188 13.171875 19.992188 13.191406 C 19.992188 13.691406 19.992188 14.195312 19.992188 14.695312 C 19.992188 14.726562 19.992188 14.726562 19.992188 14.757812 C 19.992188 14.96875 19.992188 15.175781 19.992188 15.386719 C 19.992188 15.839844 19.992188 16.289062 19.992188 16.738281 C 19.988281 17.066406 19.988281 17.394531 19.988281 17.722656 C 19.988281 17.917969 19.988281 18.113281 19.988281 18.308594 C 19.988281 18.453125 19.988281 18.601562 19.988281 18.746094 C 19.988281 18.804688 19.988281 18.863281 19.988281 18.921875 C 19.988281 19.300781 19.988281 19.300781 20.011719 19.679688 C 20.015625 19.734375 20.011719 19.777344 19.992188 19.828125 C 19.898438 19.886719 19.808594 19.875 19.699219 19.867188 C 19.535156 19.851562 19.367188 19.847656 19.199219 19.847656 C 19.175781 19.847656 19.15625 19.847656 19.132812 19.847656 C 19.113281 19.847656 19.089844 19.847656 19.070312 19.847656 C 19.050781 19.847656 19.03125 19.847656 19.011719 19.847656 C 18.960938 19.851562 18.960938 19.851562 18.917969 19.863281 C 18.863281 19.875 18.824219 19.871094 18.769531 19.863281 C 18.660156 19.851562 18.550781 19.847656 18.441406 19.847656 C 18.421875 19.847656 18.398438 19.847656 18.378906 19.847656 C 18.3125 19.847656 18.246094 19.847656 18.179688 19.847656 C 18.132812 19.847656 18.082031 19.847656 18.035156 19.847656 C 17.9375 19.847656 17.839844 19.847656 17.742188 19.847656 C 17.617188 19.847656 17.492188 19.847656 17.363281 19.847656 C 17.269531 19.847656 17.171875 19.847656 17.074219 19.847656 C 17.027344 19.847656 16.980469 19.847656 16.933594 19.847656 C 16.699219 19.847656 16.464844 19.851562 16.226562 19.867188 C 16.128906 19.875 16.042969 19.871094 15.945312 19.859375 C 15.824219 19.84375 15.699219 19.847656 15.578125 19.847656 C 15.53125 19.847656 15.480469 19.847656 15.433594 19.847656 C 15.402344 19.847656 15.371094 19.847656 15.339844 19.847656 C 15.300781 19.847656 15.300781 19.847656 15.257812 19.847656 C 15.1875 19.847656 15.1875 19.847656 15.117188 19.875 C 15.09375 19.871094 15.070312 19.867188 15.042969 19.863281 C 14.96875 19.855469 14.929688 19.851562 14.859375 19.863281 C 14.734375 19.878906 14.617188 19.871094 14.496094 19.863281 C 14.332031 19.855469 14.171875 19.847656 14.007812 19.847656 C 13.980469 19.847656 13.949219 19.847656 13.921875 19.847656 C 13.851562 19.847656 13.851562 19.847656 13.804688 19.875 C 13.789062 19.871094 13.773438 19.867188 13.757812 19.863281 C 13.664062 19.847656 13.574219 19.847656 13.484375 19.847656 C 13.464844 19.847656 13.441406 19.847656 13.421875 19.847656 C 13.355469 19.847656 13.285156 19.847656 13.214844 19.847656 C 13.167969 19.847656 13.117188 19.847656 13.070312 19.847656 C 12.933594 19.847656 12.800781 19.847656 12.667969 19.847656 C 12.527344 19.847656 12.386719 19.847656 12.246094 19.847656 C 12.011719 19.847656 11.777344 19.847656 11.539062 19.847656 C 11.269531 19.847656 10.996094 19.847656 10.726562 19.847656 C 10.492188 19.847656 10.257812 19.847656 10.023438 19.847656 C 9.882812 19.847656 9.746094 19.847656 9.605469 19.847656 C 9.476562 19.847656 9.34375 19.847656 9.210938 19.847656 C 9.164062 19.847656 9.117188 19.847656 9.066406 19.847656 C 8.820312 19.847656 8.578125 19.851562 8.332031 19.867188 C 8.207031 19.875 8.082031 19.871094 7.957031 19.863281 C 7.921875 19.863281 7.921875 19.863281 7.890625 19.859375 C 7.871094 19.859375 7.851562 19.859375 7.832031 19.859375 C 7.65625 19.847656 7.484375 19.847656 7.308594 19.847656 C 7.289062 19.847656 7.273438 19.847656 7.253906 19.847656 C 7.144531 19.847656 7.035156 19.847656 6.925781 19.847656 C 6.828125 19.847656 6.730469 19.847656 6.632812 19.847656 C 6.46875 19.847656 6.304688 19.847656 6.140625 19.847656 C 5.953125 19.847656 5.765625 19.847656 5.574219 19.847656 C 5.414062 19.847656 5.25 19.847656 5.085938 19.847656 C 4.988281 19.847656 4.894531 19.847656 4.796875 19.847656 C 4.707031 19.847656 4.613281 19.847656 4.523438 19.847656 C 4.492188 19.847656 4.457031 19.847656 4.425781 19.847656 C 4.378906 19.847656 4.332031 19.847656 4.289062 19.847656 C 4.25 19.847656 4.25 19.847656 4.210938 19.847656 C 4.144531 19.847656 4.144531 19.847656 4.078125 19.875 C 4.054688 19.875 4.03125 19.875 4.007812 19.875 C 3.984375 19.621094 3.980469 19.367188 3.980469 19.113281 C 3.980469 19.070312 3.980469 19.027344 3.980469 18.984375 C 3.980469 18.871094 3.984375 18.753906 3.984375 18.640625 C 3.984375 18.527344 3.984375 18.410156 3.984375 18.292969 C 3.984375 18.109375 3.984375 17.921875 3.984375 17.734375 C 3.984375 17.660156 3.984375 17.582031 3.984375 17.507812 C 3.984375 17.457031 3.984375 17.402344 3.984375 17.351562 C 3.984375 17.304688 3.984375 17.261719 3.984375 17.214844 C 3.984375 17.183594 3.984375 17.152344 3.984375 17.117188 C 3.988281 17.074219 3.988281 17.027344 3.988281 16.980469 C 3.988281 16.953125 3.988281 16.925781 3.988281 16.898438 C 3.988281 16.828125 3.988281 16.828125 3.960938 16.757812 C 3.976562 16.757812 3.992188 16.757812 4.007812 16.757812 C 4.003906 16.710938 4 16.667969 3.996094 16.621094 C 3.996094 16.597656 3.992188 16.570312 3.992188 16.546875 C 3.988281 16.476562 3.988281 16.476562 3.960938 16.40625 C 3.96875 16.367188 3.976562 16.328125 3.984375 16.289062 C 3.988281 16.246094 3.988281 16.199219 3.988281 16.15625 C 3.988281 16.132812 3.988281 16.109375 3.988281 16.082031 C 3.988281 16.058594 3.988281 16.03125 3.988281 16.003906 C 3.988281 15.980469 3.988281 15.953125 3.988281 15.925781 C 3.988281 15.902344 3.988281 15.878906 3.988281 15.851562 C 3.988281 15.828125 3.988281 15.808594 3.988281 15.785156 C 3.988281 15.722656 3.988281 15.722656 3.960938 15.65625 C 3.96875 15.617188 3.976562 15.578125 3.984375 15.539062 C 3.972656 15.503906 3.972656 15.503906 3.960938 15.46875 C 3.96875 15.460938 3.976562 15.453125 3.984375 15.445312 C 3.988281 15.394531 3.988281 15.34375 3.988281 15.292969 C 3.988281 15.265625 3.988281 15.238281 3.988281 15.210938 C 3.988281 15.140625 3.988281 15.140625 3.960938 15.09375 C 3.96875 15.054688 3.976562 15.015625 3.984375 14.976562 C 3.988281 14.925781 3.988281 14.871094 3.988281 14.820312 C 3.988281 14.804688 3.988281 14.789062 3.988281 14.773438 C 3.988281 14.722656 3.988281 14.671875 3.988281 14.621094 C 3.988281 14.582031 3.988281 14.546875 3.988281 14.507812 C 3.988281 14.410156 3.988281 14.308594 3.988281 14.210938 C 3.988281 14.105469 3.988281 14 3.988281 13.894531 C 3.988281 13.71875 3.988281 13.546875 3.988281 13.371094 C 3.988281 13.167969 3.988281 12.964844 3.988281 12.761719 C 3.988281 12.585938 3.988281 12.410156 3.988281 12.238281 C 3.988281 12.132812 3.988281 12.027344 3.988281 11.925781 C 3.988281 11.828125 3.988281 11.730469 3.988281 11.632812 C 3.988281 11.59375 3.988281 11.558594 3.988281 11.523438 C 3.988281 11.472656 3.988281 11.425781 3.988281 11.375 C 3.988281 11.347656 3.988281 11.320312 3.988281 11.292969 C 3.988281 11.226562 3.988281 11.226562 3.960938 11.15625 C 3.964844 11.140625 3.96875 11.121094 3.972656 11.101562 C 3.988281 11.035156 3.988281 11.035156 3.972656 10.957031 C 3.960938 10.875 3.960938 10.875 3.972656 10.824219 C 3.988281 10.734375 3.988281 10.648438 3.988281 10.558594 C 3.988281 10.539062 3.988281 10.519531 3.988281 10.5 C 3.988281 10.441406 3.984375 10.382812 3.984375 10.320312 C 3.984375 10.28125 3.984375 10.238281 3.984375 10.199219 C 3.984375 10.125 3.984375 10.050781 3.984375 9.976562 C 3.984375 9.878906 3.984375 9.78125 3.984375 9.683594 C 3.984375 9.609375 3.984375 9.535156 3.984375 9.457031 C 3.984375 9.417969 3.984375 9.378906 3.984375 9.339844 C 3.988281 9.28125 3.988281 9.222656 3.988281 9.164062 C 3.988281 9.148438 3.988281 9.128906 3.988281 9.113281 C 3.988281 9.035156 3.984375 8.976562 3.960938 8.90625 C 3.96875 8.867188 3.976562 8.828125 3.984375 8.789062 C 3.992188 8.742188 4 8.695312 4.007812 8.648438 C 3.992188 8.640625 3.976562 8.632812 3.960938 8.625 C 3.964844 8.609375 3.96875 8.59375 3.972656 8.574219 C 3.984375 8.503906 3.988281 8.4375 3.988281 8.363281 C 3.988281 8.332031 3.988281 8.304688 3.988281 8.273438 C 3.988281 8.242188 3.988281 8.210938 3.988281 8.175781 C 3.988281 8.144531 3.988281 8.109375 3.988281 8.074219 C 3.988281 7.984375 3.988281 7.890625 3.988281 7.796875 C 3.988281 7.699219 3.988281 7.605469 3.988281 7.507812 C 3.988281 7.34375 3.988281 7.183594 3.988281 7.019531 C 3.988281 6.832031 3.988281 6.644531 3.988281 6.457031 C 3.988281 6.296875 3.988281 6.136719 3.988281 5.972656 C 3.988281 5.878906 3.988281 5.78125 3.988281 5.683594 C 3.988281 5.59375 3.988281 5.503906 3.988281 5.414062 C 3.988281 5.378906 3.988281 5.347656 3.988281 5.3125 C 3.988281 5.269531 3.988281 5.222656 3.988281 5.179688 C 3.988281 5.152344 3.988281 5.128906 3.988281 5.101562 C 3.988281 5.035156 3.988281 5.035156 3.960938 4.96875 C 3.972656 4.957031 3.972656 4.957031 3.984375 4.945312 C 3.988281 4.882812 3.992188 4.824219 3.992188 4.761719 C 3.992188 4.746094 3.992188 4.726562 3.992188 4.707031 C 3.996094 4.648438 3.996094 4.59375 3.996094 4.535156 C 4 4.496094 4 4.453125 4 4.414062 C 4.003906 4.320312 4.003906 4.222656 4.007812 4.125 Z M 4.03125 4.195312 C 4.03125 9.347656 4.03125 14.496094 4.03125 19.804688 C 9.28125 19.804688 14.535156 19.804688 19.945312 19.804688 C 19.945312 14.652344 19.945312 9.503906 19.945312 4.195312 C 14.695312 4.195312 9.441406 4.195312 4.03125 4.195312 Z M 4.03125 4.195312 "/>
<path style=" stroke:none;fill-rule:nonzero;fill:rgb(32.549021%,47.058824%,25.098041%);fill-opacity:1;" d="M 4.007812 4.6875 C 4.015625 4.6875 4.023438 4.6875 4.03125 4.6875 C 4.03125 9.675781 4.03125 14.664062 4.03125 19.804688 C 9.289062 19.804688 14.550781 19.804688 19.96875 19.804688 C 19.96875 19.703125 19.96875 19.605469 19.96875 19.5 C 19.976562 19.5 19.984375 19.5 19.992188 19.5 C 19.996094 19.535156 20 19.574219 20.003906 19.609375 C 20.007812 19.632812 20.011719 19.652344 20.011719 19.675781 C 20.015625 19.773438 20.015625 19.773438 19.992188 19.828125 C 19.898438 19.886719 19.808594 19.875 19.699219 19.867188 C 19.535156 19.851562 19.367188 19.847656 19.199219 19.847656 C 19.175781 19.847656 19.15625 19.847656 19.132812 19.847656 C 19.113281 19.847656 19.089844 19.847656 19.070312 19.847656 C 19.050781 19.847656 19.03125 19.847656 19.011719 19.847656 C 18.960938 19.851562 18.960938 19.851562 18.917969 19.863281 C 18.863281 19.875 18.824219 19.871094 18.769531 19.863281 C 18.660156 19.851562 18.550781 19.847656 18.441406 19.847656 C 18.421875 19.847656 18.398438 19.847656 18.378906 19.847656 C 18.3125 19.847656 18.246094 19.847656 18.179688 19.847656 C 18.132812 19.847656 18.082031 19.847656 18.035156 19.847656 C 17.9375 19.847656 17.839844 19.847656 17.742188 19.847656 C 17.617188 19.847656 17.492188 19.847656 17.363281 19.847656 C 17.269531 19.847656 17.171875 19.847656 17.074219 19.847656 C 17.027344 19.847656 16.980469 19.847656 16.933594 19.847656 C 16.699219 19.847656 16.464844 19.851562 16.226562 19.867188 C 16.128906 19.875 16.042969 19.871094 15.945312 19.859375 C 15.824219 19.84375 15.699219 19.847656 15.578125 19.847656 C 15.53125 19.847656 15.480469 19.847656 15.433594 19.847656 C 15.402344 19.847656 15.371094 19.847656 15.339844 19.847656 C 15.300781 19.847656 15.300781 19.847656 15.257812 19.847656 C 15.1875 19.847656 15.1875 19.847656 15.117188 19.875 C 15.09375 19.871094 15.070312 19.867188 15.042969 19.863281 C 14.96875 19.855469 14.929688 19.851562 14.859375 19.863281 C 14.734375 19.878906 14.617188 19.871094 14.496094 19.863281 C 14.332031 19.855469 14.171875 19.847656 14.007812 19.847656 C 13.980469 19.847656 13.949219 19.847656 13.921875 19.847656 C 13.851562 19.847656 13.851562 19.847656 13.804688 19.875 C 13.789062 19.871094 13.773438 19.867188 13.757812 19.863281 C 13.664062 19.847656 13.574219 19.847656 13.484375 19.847656 C 13.464844 19.847656 13.441406 19.847656 13.421875 19.847656 C 13.355469 19.847656 13.285156 19.847656 13.214844 19.847656 C 13.167969 19.847656 13.117188 19.847656 13.070312 19.847656 C 12.933594 19.847656 12.800781 19.847656 12.667969 19.847656 C 12.527344 19.847656 12.386719 19.847656 12.246094 19.847656 C 12.011719 19.847656 11.777344 19.847656 11.539062 19.847656 C 11.269531 19.847656 10.996094 19.847656 10.726562 19.847656 C 10.492188 19.847656 10.257812 19.847656 10.023438 19.847656 C 9.882812 19.847656 9.746094 19.847656 9.605469 19.847656 C 9.476562 19.847656 9.34375 19.847656 9.210938 19.847656 C 9.164062 19.847656 9.117188 19.847656 9.066406 19.847656 C 8.820312 19.847656 8.578125 19.851562 8.332031 19.867188 C 8.207031 19.875 8.082031 19.871094 7.957031 19.863281 C 7.921875 19.863281 7.921875 19.863281 7.890625 19.859375 C 7.871094 19.859375 7.851562 19.859375 7.832031 19.859375 C 7.65625 19.847656 7.484375 19.847656 7.308594 19.847656 C 7.289062 19.847656 7.273438 19.847656 7.253906 19.847656 C 7.144531 19.847656 7.035156 19.847656 6.925781 19.847656 C 6.828125 19.847656 6.730469 19.847656 6.632812 19.847656 C 6.46875 19.847656 6.304688 19.847656 6.140625 19.847656 C 5.953125 19.847656 5.765625 19.847656 5.574219 19.847656 C 5.414062 19.847656 5.25 19.847656 5.085938 19.847656 C 4.988281 19.847656 4.894531 19.847656 4.796875 19.847656 C 4.707031 19.847656 4.613281 19.847656 4.523438 19.847656 C 4.492188 19.847656 4.457031 19.847656 4.425781 19.847656 C 4.378906 19.847656 4.332031 19.847656 4.289062 19.847656 C 4.25 19.847656 4.25 19.847656 4.210938 19.847656 C 4.144531 19.847656 4.144531 19.847656 4.078125 19.875 C 4.054688 19.875 4.03125 19.875 4.007812 19.875 C 3.984375 19.621094 3.980469 19.367188 3.980469 19.113281 C 3.980469 19.070312 3.980469 19.027344 3.980469 18.984375 C 3.980469 18.871094 3.984375 18.753906 3.984375 18.640625 C 3.984375 18.527344 3.984375 18.410156 3.984375 18.292969 C 3.984375 18.109375 3.984375 17.921875 3.984375 17.734375 C 3.984375 17.660156 3.984375 17.582031 3.984375 17.507812 C 3.984375 17.457031 3.984375 17.402344 3.984375 17.351562 C 3.984375 17.304688 3.984375 17.261719 3.984375 17.214844 C 3.984375 17.183594 3.984375 17.152344 3.984375 17.117188 C 3.988281 17.074219 3.988281 17.027344 3.988281 16.980469 C 3.988281 16.953125 3.988281 16.925781 3.988281 16.898438 C 3.988281 16.828125 3.988281 16.828125 3.960938 16.757812 C 3.976562 16.757812 3.992188 16.757812 4.007812 16.757812 C 4.003906 16.710938 4 16.667969 3.996094 16.621094 C 3.996094 16.597656 3.992188 16.570312 3.992188 16.546875 C 3.988281 16.476562 3.988281 16.476562 3.960938 16.40625 C 3.96875 16.367188 3.976562 16.328125 3.984375 16.289062 C 3.988281 16.246094 3.988281 16.199219 3.988281 16.15625 C 3.988281 16.132812 3.988281 16.109375 3.988281 16.082031 C 3.988281 16.058594 3.988281 16.03125 3.988281 16.003906 C 3.988281 15.980469 3.988281 15.953125 3.988281 15.925781 C 3.988281 15.902344 3.988281 15.878906 3.988281 15.851562 C 3.988281 15.828125 3.988281 15.808594 3.988281 15.785156 C 3.988281 15.722656 3.988281 15.722656 3.960938 15.65625 C 3.96875 15.617188 3.976562 15.578125 3.984375 15.539062 C 3.972656 15.503906 3.972656 15.503906 3.960938 15.46875 C 3.96875 15.460938 3.976562 15.453125 3.984375 15.445312 C 3.988281 15.394531 3.988281 15.34375 3.988281 15.292969 C 3.988281 15.265625 3.988281 15.238281 3.988281 15.210938 C 3.988281 15.140625 3.988281 15.140625 3.960938 15.09375 C 3.96875 15.054688 3.976562 15.015625 3.984375 14.976562 C 3.988281 14.925781 3.988281 14.871094 3.988281 14.820312 C 3.988281 14.804688 3.988281 14.789062 3.988281 14.773438 C 3.988281 14.722656 3.988281 14.671875 3.988281 14.621094 C 3.988281 14.582031 3.988281 14.546875 3.988281 14.507812 C 3.988281 14.410156 3.988281 14.308594 3.988281 14.210938 C 3.988281 14.105469 3.988281 14 3.988281 13.894531 C 3.988281 13.71875 3.988281 13.546875 3.988281 13.371094 C 3.988281 13.167969 3.988281 12.964844 3.988281 12.761719 C 3.988281 12.585938 3.988281 12.410156 3.988281 12.238281 C 3.988281 12.132812 3.988281 12.027344 3.988281 11.925781 C 3.988281 11.828125 3.988281 11.730469 3.988281 11.632812 C 3.988281 11.59375 3.988281 11.558594 3.988281 11.523438 C 3.988281 11.472656 3.988281 11.425781 3.988281 11.375 C 3.988281 11.347656 3.988281 11.320312 3.988281 11.292969 C 3.988281 11.226562 3.988281 11.226562 3.960938 11.15625 C 3.964844 11.140625 3.96875 11.121094 3.972656 11.101562 C 3.988281 11.035156 3.988281 11.035156 3.972656 10.957031 C 3.960938 10.875 3.960938 10.875 3.972656 10.824219 C 3.988281 10.734375 3.988281 10.648438 3.988281 10.558594 C 3.988281 10.539062 3.988281 10.519531 3.988281 10.5 C 3.988281 10.441406 3.984375 10.382812 3.984375 10.320312 C 3.984375 10.28125 3.984375 10.238281 3.984375 10.199219 C 3.984375 10.125 3.984375 10.050781 3.984375 9.976562 C 3.984375 9.878906 3.984375 9.78125 3.984375 9.683594 C 3.984375 9.609375 3.984375 9.535156 3.984375 9.457031 C 3.984375 9.417969 3.984375 9.378906 3.984375 9.339844 C 3.988281 9.28125 3.988281 9.222656 3.988281 9.164062 C 3.988281 9.148438 3.988281 9.128906 3.988281 9.113281 C 3.988281 9.035156 3.984375 8.976562 3.960938 8.90625 C 3.96875 8.867188 3.976562 8.828125 3.984375 8.789062 C 3.992188 8.742188 4 8.695312 4.007812 8.648438 C 3.992188 8.640625 3.976562 8.632812 3.960938 8.625 C 3.964844 8.609375 3.96875 8.59375 3.972656 8.574219 C 3.984375 8.503906 3.988281 8.4375 3.988281 8.363281 C 3.988281 8.332031 3.988281 8.304688 3.988281 8.273438 C 3.988281 8.242188 3.988281 8.210938 3.988281 8.175781 C 3.988281 8.144531 3.988281 8.109375 3.988281 8.074219 C 3.988281 7.984375 3.988281 7.890625 3.988281 7.796875 C 3.988281 7.699219 3.988281 7.605469 3.988281 7.507812 C 3.988281 7.34375 3.988281 7.183594 3.988281 7.019531 C 3.988281 6.832031 3.988281 6.644531 3.988281 6.457031 C 3.988281 6.296875 3.988281 6.136719 3.988281 5.972656 C 3.988281 5.878906 3.988281 5.78125 3.988281 5.683594 C 3.988281 5.59375 3.988281 5.503906 3.988281 5.414062 C 3.988281 5.378906 3.988281 5.347656 3.988281 5.3125 C 3.988281 5.269531 3.988281 5.222656 3.988281 5.179688 C 3.988281 5.152344 3.988281 5.128906 3.988281 5.101562 C 3.988281 5.035156 3.988281 5.035156 3.960938 4.96875 C 3.96875 4.960938 3.976562 4.953125 3.984375 4.945312 C 3.988281 4.902344 3.992188 4.859375 3.996094 4.816406 C 4 4.792969 4 4.765625 4.003906 4.742188 C 4.003906 4.726562 4.007812 4.707031 4.007812 4.6875 Z M 4.007812 4.6875 "/>
<path style=" stroke:none;fill-rule:nonzero;fill:rgb(12.941177%,18.431373%,10.196079%);fill-opacity:1;" d="M 20.082031 3.300781 C 20.160156 3.300781 20.238281 3.300781 20.320312 3.300781 C 20.367188 3.300781 20.417969 3.300781 20.46875 3.300781 C 20.492188 3.300781 20.515625 3.300781 20.539062 3.300781 C 20.5625 3.300781 20.582031 3.300781 20.605469 3.300781 C 20.632812 3.300781 20.632812 3.300781 20.664062 3.300781 C 20.722656 3.304688 20.777344 3.316406 20.835938 3.328125 C 20.835938 3.378906 20.835938 3.433594 20.835938 3.484375 C 20.835938 3.515625 20.839844 3.546875 20.839844 3.574219 C 20.835938 3.65625 20.835938 3.65625 20.824219 3.703125 C 20.808594 3.765625 20.820312 3.820312 20.828125 3.882812 C 20.84375 3.996094 20.839844 4.109375 20.839844 4.222656 C 20.839844 4.25 20.839844 4.273438 20.839844 4.300781 C 20.839844 4.324219 20.839844 4.347656 20.839844 4.371094 C 20.839844 4.394531 20.839844 4.414062 20.839844 4.4375 C 20.835938 4.5 20.828125 4.558594 20.8125 4.617188 C 20.765625 4.625 20.71875 4.632812 20.671875 4.640625 C 20.648438 4.570312 20.648438 4.570312 20.648438 4.5 C 20.625 4.46875 20.601562 4.4375 20.578125 4.40625 C 20.578125 4.390625 20.578125 4.375 20.578125 4.359375 C 20.53125 4.320312 20.484375 4.289062 20.433594 4.253906 C 20.390625 4.21875 20.390625 4.21875 20.367188 4.148438 C 20.3125 4.128906 20.261719 4.113281 20.203125 4.101562 C 20.167969 4.09375 20.132812 4.085938 20.097656 4.074219 C 20.070312 4.070312 20.042969 4.0625 20.015625 4.054688 C 20.003906 4.078125 20.003906 4.078125 19.992188 4.101562 C 19.882812 4.066406 19.816406 3.972656 19.734375 3.890625 C 19.710938 3.898438 19.6875 3.90625 19.664062 3.914062 C 19.648438 3.90625 19.632812 3.898438 19.617188 3.890625 C 19.609375 3.90625 19.601562 3.921875 19.59375 3.9375 C 19.59375 3.921875 19.59375 3.90625 19.59375 3.890625 C 19.578125 3.882812 19.5625 3.875 19.546875 3.867188 C 19.554688 3.789062 19.5625 3.710938 19.570312 3.632812 C 19.554688 3.632812 19.539062 3.632812 19.523438 3.632812 C 19.507812 3.648438 19.492188 3.664062 19.476562 3.679688 C 19.472656 3.660156 19.46875 3.644531 19.464844 3.625 C 19.433594 3.554688 19.433594 3.554688 19.347656 3.53125 C 19.269531 3.511719 19.269531 3.511719 19.195312 3.515625 C 19.179688 3.5 19.164062 3.484375 19.148438 3.46875 C 19.125 3.46875 19.101562 3.46875 19.078125 3.46875 C 19.085938 3.453125 19.09375 3.4375 19.101562 3.421875 C 19.09375 3.414062 19.085938 3.40625 19.078125 3.398438 C 19.101562 3.351562 19.101562 3.351562 19.140625 3.335938 C 19.449219 3.285156 19.773438 3.300781 20.082031 3.300781 Z M 19.640625 3.65625 C 19.632812 3.679688 19.625 3.703125 19.617188 3.726562 C 19.675781 3.738281 19.675781 3.738281 19.734375 3.75 C 19.703125 3.71875 19.671875 3.6875 19.640625 3.65625 Z M 20.742188 4.546875 C 20.734375 4.5625 20.726562 4.578125 20.71875 4.59375 C 20.734375 4.59375 20.75 4.59375 20.765625 4.59375 C 20.757812 4.578125 20.75 4.5625 20.742188 4.546875 Z M 20.742188 4.546875 "/>
<path style=" stroke:none;fill-rule:nonzero;fill:rgb(11.764706%,16.862746%,9.019608%);fill-opacity:1;" d="M 3.535156 3.300781 C 3.558594 3.300781 3.582031 3.300781 3.605469 3.300781 C 3.917969 3.304688 4.234375 3.316406 4.546875 3.324219 C 4.59375 3.328125 4.640625 3.328125 4.6875 3.328125 C 4.710938 3.398438 4.710938 3.417969 4.6875 3.492188 C 4.640625 3.492188 4.59375 3.492188 4.546875 3.492188 C 4.539062 3.515625 4.53125 3.539062 4.523438 3.5625 C 4.441406 3.632812 4.441406 3.632812 4.382812 3.632812 C 4.394531 3.667969 4.394531 3.667969 4.40625 3.703125 C 4.390625 3.703125 4.375 3.703125 4.359375 3.703125 C 4.359375 3.6875 4.359375 3.671875 4.359375 3.65625 C 4.300781 3.6875 4.292969 3.714844 4.265625 3.773438 C 4.234375 3.773438 4.203125 3.773438 4.171875 3.773438 C 4.183594 3.808594 4.183594 3.808594 4.195312 3.84375 C 4.171875 3.84375 4.148438 3.84375 4.125 3.84375 C 4.113281 3.902344 4.113281 3.902344 4.101562 3.960938 C 4.054688 3.953125 4.007812 3.945312 3.960938 3.9375 C 3.960938 3.953125 3.960938 3.96875 3.960938 3.984375 C 3.921875 3.988281 3.921875 3.988281 3.882812 3.996094 C 3.800781 4.003906 3.800781 4.003906 3.75 4.03125 C 3.734375 4.089844 3.734375 4.089844 3.726562 4.148438 C 3.679688 4.148438 3.632812 4.148438 3.585938 4.148438 C 3.582031 4.164062 3.582031 4.179688 3.578125 4.195312 C 3.570312 4.21875 3.570312 4.21875 3.5625 4.242188 C 3.539062 4.253906 3.539062 4.253906 3.515625 4.265625 C 3.523438 4.28125 3.53125 4.296875 3.539062 4.3125 C 3.515625 4.3125 3.492188 4.3125 3.46875 4.3125 C 3.46875 4.296875 3.46875 4.28125 3.46875 4.265625 C 3.445312 4.265625 3.421875 4.265625 3.398438 4.265625 C 3.394531 4.289062 3.394531 4.308594 3.390625 4.332031 C 3.375 4.40625 3.367188 4.433594 3.304688 4.476562 C 3.273438 4.476562 3.242188 4.476562 3.210938 4.476562 C 3.164062 4.320312 3.164062 4.320312 3.164062 4.242188 C 3.160156 4.226562 3.15625 4.210938 3.152344 4.195312 C 3.140625 4.148438 3.140625 4.148438 3.164062 4.101562 C 3.15625 4.09375 3.148438 4.085938 3.140625 4.078125 C 3.148438 4.03125 3.152344 3.988281 3.160156 3.941406 C 3.164062 3.875 3.152344 3.816406 3.140625 3.75 C 3.152344 3.714844 3.152344 3.714844 3.164062 3.679688 C 3.164062 3.625 3.167969 3.566406 3.164062 3.511719 C 3.164062 3.480469 3.164062 3.453125 3.164062 3.421875 C 3.164062 3.398438 3.164062 3.375 3.164062 3.351562 C 3.289062 3.300781 3.402344 3.296875 3.535156 3.300781 Z M 4.429688 3.515625 C 4.453125 3.5625 4.453125 3.5625 4.453125 3.5625 Z M 3.351562 4.265625 C 3.375 4.3125 3.375 4.3125 3.375 4.3125 Z M 3.351562 4.265625 "/>
<path style=" stroke:none;fill-rule:nonzero;fill:rgb(34.509805%,50.196081%,27.058825%);fill-opacity:1;" d="M 13.675781 19.800781 C 13.730469 19.800781 13.785156 19.800781 13.835938 19.800781 C 13.949219 19.800781 14.0625 19.800781 14.171875 19.800781 C 14.3125 19.800781 14.457031 19.800781 14.597656 19.800781 C 14.707031 19.800781 14.820312 19.800781 14.929688 19.800781 C 14.980469 19.800781 15.035156 19.800781 15.085938 19.800781 C 15.355469 19.800781 15.621094 19.800781 15.890625 19.828125 C 15.890625 19.835938 15.890625 19.84375 15.890625 19.851562 C 15.871094 19.851562 15.847656 19.851562 15.828125 19.851562 C 15.75 19.851562 15.671875 19.851562 15.59375 19.851562 C 15.558594 19.851562 15.527344 19.851562 15.492188 19.851562 C 15.445312 19.847656 15.398438 19.847656 15.347656 19.847656 C 15.304688 19.847656 15.304688 19.847656 15.261719 19.847656 C 15.1875 19.847656 15.1875 19.847656 15.117188 19.875 C 15.09375 19.871094 15.070312 19.867188 15.042969 19.863281 C 14.96875 19.855469 14.929688 19.851562 14.859375 19.863281 C 14.734375 19.878906 14.617188 19.871094 14.496094 19.863281 C 14.332031 19.855469 14.171875 19.847656 14.007812 19.847656 C 13.980469 19.847656 13.949219 19.847656 13.921875 19.847656 C 13.851562 19.847656 13.851562 19.847656 13.804688 19.875 C 13.765625 19.867188 13.726562 19.859375 13.6875 19.851562 C 13.648438 19.851562 13.613281 19.847656 13.574219 19.847656 C 13.554688 19.847656 13.53125 19.847656 13.511719 19.847656 C 13.488281 19.847656 13.464844 19.847656 13.441406 19.847656 C 13.417969 19.847656 13.394531 19.847656 13.367188 19.847656 C 13.292969 19.847656 13.21875 19.851562 13.140625 19.851562 C 13.089844 19.851562 13.039062 19.851562 12.988281 19.851562 C 12.859375 19.851562 12.734375 19.851562 12.609375 19.851562 C 12.609375 19.84375 12.609375 19.835938 12.609375 19.828125 C 12.964844 19.808594 13.320312 19.800781 13.675781 19.800781 Z M 13.675781 19.800781 "/>
<path style=" stroke:none;fill-rule:nonzero;fill:rgb(30.588236%,44.313726%,23.137255%);fill-opacity:1;" d="M 4.007812 17.8125 C 4.015625 17.8125 4.023438 17.8125 4.03125 17.8125 C 4.03125 18.46875 4.03125 19.128906 4.03125 19.804688 C 4.269531 19.804688 4.511719 19.804688 4.757812 19.804688 C 4.679688 19.855469 4.65625 19.855469 4.566406 19.855469 C 4.542969 19.855469 4.519531 19.855469 4.492188 19.855469 C 4.457031 19.855469 4.457031 19.855469 4.417969 19.851562 C 4.367188 19.851562 4.320312 19.851562 4.269531 19.851562 C 4.25 19.851562 4.226562 19.851562 4.203125 19.851562 C 4.144531 19.847656 4.144531 19.847656 4.078125 19.875 C 4.054688 19.875 4.03125 19.875 4.007812 19.875 C 3.984375 19.644531 3.980469 19.417969 3.980469 19.1875 C 3.980469 19.148438 3.980469 19.113281 3.980469 19.078125 C 3.980469 19.003906 3.980469 18.929688 3.980469 18.851562 C 3.980469 18.757812 3.980469 18.660156 3.980469 18.566406 C 3.980469 18.492188 3.980469 18.417969 3.980469 18.34375 C 3.980469 18.308594 3.980469 18.273438 3.980469 18.238281 C 3.980469 18.1875 3.980469 18.136719 3.980469 18.089844 C 3.980469 18.0625 3.980469 18.03125 3.980469 18.003906 C 3.984375 17.9375 3.992188 17.878906 4.007812 17.8125 Z M 4.007812 17.8125 "/>
<path style=" stroke:none;fill-rule:nonzero;fill:rgb(30.588236%,44.313726%,23.529412%);fill-opacity:1;" d="M 19.96875 19.5 C 19.976562 19.5 19.984375 19.5 19.992188 19.5 C 19.996094 19.535156 20 19.574219 20.003906 19.609375 C 20.007812 19.640625 20.007812 19.640625 20.011719 19.675781 C 20.015625 19.773438 20.015625 19.773438 19.992188 19.828125 C 19.898438 19.886719 19.808594 19.875 19.699219 19.867188 C 19.535156 19.851562 19.367188 19.847656 19.199219 19.847656 C 19.167969 19.847656 19.167969 19.847656 19.132812 19.847656 C 19.101562 19.847656 19.101562 19.847656 19.070312 19.847656 C 19.050781 19.847656 19.03125 19.847656 19.011719 19.847656 C 18.960938 19.851562 18.960938 19.851562 18.914062 19.863281 C 18.847656 19.878906 18.785156 19.867188 18.71875 19.859375 C 18.621094 19.847656 18.523438 19.851562 18.425781 19.851562 C 18.351562 19.851562 18.28125 19.84375 18.210938 19.828125 C 18.210938 19.820312 18.210938 19.8125 18.210938 19.804688 C 18.789062 19.804688 19.371094 19.804688 19.96875 19.804688 C 19.96875 19.703125 19.96875 19.605469 19.96875 19.5 Z M 19.96875 19.5 "/>
<path style=" stroke:none;fill-rule:nonzero;fill:rgb(34.901962%,50.980395%,27.450982%);fill-opacity:1;" d="M 9.632812 8.109375 C 9.554688 8.109375 9.476562 8.109375 9.398438 8.109375 C 9.398438 8.125 9.398438 8.140625 9.398438 8.15625 C 9.375 8.148438 9.351562 8.140625 9.328125 8.132812 C 9.195312 8.125 9.082031 8.148438 8.953125 8.179688 C 8.960938 8.203125 8.96875 8.226562 8.976562 8.25 C 8.960938 8.25 8.945312 8.25 8.929688 8.25 C 8.929688 8.234375 8.929688 8.21875 8.929688 8.203125 C 8.6875 8.332031 8.484375 8.480469 8.34375 8.71875 C 8.335938 8.703125 8.328125 8.6875 8.320312 8.671875 C 8.542969 8.355469 8.804688 8.164062 9.183594 8.070312 C 9.492188 8.039062 9.492188 8.039062 9.632812 8.109375 Z M 9.632812 8.109375 "/>
<path style=" stroke:none;fill-rule:nonzero;fill:rgb(27.843139%,40.784314%,21.568628%);fill-opacity:1;" d="M 4.007812 19.289062 C 4.015625 19.289062 4.023438 19.289062 4.03125 19.289062 C 4.03125 19.460938 4.03125 19.628906 4.03125 19.804688 C 4.269531 19.804688 4.511719 19.804688 4.757812 19.804688 C 4.679688 19.855469 4.65625 19.855469 4.566406 19.855469 C 4.542969 19.855469 4.519531 19.855469 4.492188 19.855469 C 4.457031 19.855469 4.457031 19.855469 4.417969 19.851562 C 4.367188 19.851562 4.320312 19.851562 4.269531 19.851562 C 4.25 19.851562 4.226562 19.851562 4.203125 19.851562 C 4.144531 19.847656 4.144531 19.847656 4.078125 19.875 C 4.054688 19.875 4.03125 19.875 4.007812 19.875 C 3.988281 19.675781 3.984375 19.488281 4.007812 19.289062 Z M 4.007812 19.289062 "/>
<path style=" stroke:none;fill-rule:nonzero;fill:rgb(38.82353%,57.647061%,30.980393%);fill-opacity:1;" d="M 18.398438 11.25 C 18.414062 11.257812 18.429688 11.265625 18.445312 11.273438 C 18.332031 11.507812 18.171875 11.695312 17.953125 11.835938 C 17.988281 11.753906 18.035156 11.699219 18.097656 11.636719 C 18.207031 11.515625 18.304688 11.386719 18.398438 11.25 Z M 18.398438 11.25 "/>
<path style=" stroke:none;fill-rule:nonzero;fill:rgb(40.000001%,59.607846%,32.156864%);fill-opacity:1;" d="M 13.78125 16.664062 C 13.800781 16.703125 13.800781 16.703125 13.804688 16.757812 C 13.769531 16.804688 13.734375 16.847656 13.691406 16.890625 C 13.609375 16.96875 13.609375 16.96875 13.546875 17.0625 C 13.492188 17.097656 13.441406 17.128906 13.382812 17.15625 C 13.441406 17.03125 13.519531 16.949219 13.617188 16.851562 C 13.671875 16.789062 13.726562 16.726562 13.78125 16.664062 Z M 13.78125 16.664062 "/>
<path style=" stroke:none;fill-rule:nonzero;fill:rgb(38.82353%,57.647061%,30.980393%);fill-opacity:1;" d="M 16.640625 13.335938 C 16.640625 13.46875 16.570312 13.550781 16.480469 13.644531 C 16.40625 13.714844 16.332031 13.773438 16.242188 13.828125 C 16.273438 13.757812 16.308594 13.707031 16.359375 13.648438 C 16.371094 13.632812 16.386719 13.621094 16.398438 13.601562 C 16.414062 13.585938 16.425781 13.570312 16.441406 13.554688 C 16.457031 13.539062 16.46875 13.523438 16.484375 13.507812 C 16.535156 13.449219 16.585938 13.390625 16.640625 13.335938 Z M 16.640625 13.335938 "/>
<path style=" stroke:none;fill-rule:nonzero;fill:rgb(32.941177%,48.235294%,25.882354%);fill-opacity:1;" d="M 4.007812 10.546875 C 4.015625 10.546875 4.023438 10.546875 4.03125 10.546875 C 4.03125 10.832031 4.03125 11.121094 4.03125 11.414062 C 3.964844 11.28125 3.957031 11.183594 3.984375 11.039062 C 3.980469 11.011719 3.976562 10.984375 3.972656 10.957031 C 3.960938 10.878906 3.96875 10.835938 3.984375 10.757812 C 3.984375 10.726562 3.984375 10.691406 3.984375 10.65625 C 3.984375 10.570312 3.984375 10.570312 4.007812 10.546875 Z M 4.007812 10.546875 "/>
<path style=" stroke:none;fill-rule:nonzero;fill:rgb(36.078432%,53.725493%,29.019609%);fill-opacity:1;" d="M 14.25 10.5 C 14.480469 10.5 14.714844 10.5 14.953125 10.5 C 14.785156 10.613281 14.542969 10.585938 14.351562 10.546875 C 14.316406 10.539062 14.285156 10.53125 14.25 10.523438 C 14.25 10.515625 14.25 10.507812 14.25 10.5 Z M 14.25 10.5 "/>
<path style=" stroke:none;fill-rule:nonzero;fill:rgb(21.176471%,30.19608%,16.862746%);fill-opacity:1;" d="M 19.59375 3.726562 C 19.632812 3.734375 19.671875 3.742188 19.710938 3.75 C 19.703125 3.804688 19.695312 3.859375 19.6875 3.914062 C 19.664062 3.90625 19.640625 3.898438 19.617188 3.890625 C 19.609375 3.90625 19.601562 3.921875 19.59375 3.9375 C 19.59375 3.921875 19.59375 3.90625 19.59375 3.890625 C 19.578125 3.882812 19.5625 3.875 19.546875 3.867188 C 19.566406 3.753906 19.566406 3.753906 19.59375 3.726562 Z M 19.59375 3.726562 "/>
<path style=" stroke:none;fill-rule:nonzero;fill:rgb(38.431373%,57.254905%,30.980393%);fill-opacity:1;" d="M 11.34375 17.25 C 11.429688 17.335938 11.496094 17.425781 11.554688 17.53125 C 11.578125 17.566406 11.578125 17.566406 11.601562 17.601562 C 11.457031 17.542969 11.375 17.421875 11.296875 17.296875 C 11.3125 17.296875 11.328125 17.296875 11.34375 17.296875 C 11.34375 17.28125 11.34375 17.265625 11.34375 17.25 Z M 11.34375 17.25 "/>
<path style=" stroke:none;fill-rule:nonzero;fill:rgb(41.176471%,60.392159%,32.941177%);fill-opacity:1;" d="M 8.367188 14.414062 C 8.445312 14.425781 8.484375 14.449219 8.539062 14.503906 C 8.550781 14.515625 8.5625 14.527344 8.574219 14.542969 C 8.601562 14.578125 8.601562 14.578125 8.601562 14.648438 C 8.585938 14.648438 8.570312 14.648438 8.554688 14.648438 C 8.554688 14.632812 8.554688 14.617188 8.554688 14.601562 C 8.539062 14.597656 8.527344 14.589844 8.511719 14.585938 C 8.453125 14.550781 8.4375 14.523438 8.414062 14.460938 C 8.398438 14.460938 8.382812 14.460938 8.367188 14.460938 C 8.367188 14.445312 8.367188 14.429688 8.367188 14.414062 Z M 8.367188 14.414062 "/>
<path style=" stroke:none;fill-rule:nonzero;fill:rgb(38.431373%,57.254905%,30.980393%);fill-opacity:1;" d="M 17.320312 12.539062 C 17.328125 12.570312 17.335938 12.601562 17.34375 12.632812 C 17.265625 12.703125 17.1875 12.773438 17.109375 12.84375 C 17.109375 12.746094 17.148438 12.722656 17.214844 12.652344 C 17.234375 12.628906 17.253906 12.609375 17.273438 12.585938 C 17.296875 12.5625 17.296875 12.5625 17.320312 12.539062 Z M 17.320312 12.539062 "/>
<path style=" stroke:none;fill-rule:nonzero;fill:rgb(49.411765%,73.333335%,39.607844%);fill-opacity:1;" d="M 15.890625 6.742188 C 15.914062 6.753906 15.9375 6.761719 15.960938 6.773438 C 15.984375 6.78125 16.003906 6.789062 16.027344 6.800781 C 16.042969 6.804688 16.0625 6.8125 16.078125 6.820312 C 16.039062 6.835938 16.039062 6.835938 15.984375 6.84375 C 15.953125 6.828125 15.921875 6.8125 15.890625 6.796875 C 15.820312 6.804688 15.789062 6.824219 15.726562 6.867188 C 15.726562 6.796875 15.726562 6.796875 15.765625 6.753906 C 15.820312 6.726562 15.820312 6.726562 15.890625 6.742188 Z M 15.890625 6.742188 "/>
<path style=" stroke:none;fill-rule:nonzero;fill:rgb(33.333334%,48.627451%,26.274511%);fill-opacity:1;" d="M 3.984375 17.507812 C 4 17.507812 4.015625 17.507812 4.03125 17.507812 C 4.03125 17.609375 4.03125 17.707031 4.03125 17.8125 C 4.015625 17.804688 4 17.796875 3.984375 17.789062 C 3.984375 17.695312 3.984375 17.601562 3.984375 17.507812 Z M 3.984375 17.507812 "/>
<path style=" stroke:none;fill-rule:nonzero;fill:rgb(48.627451%,72.156864%,39.215687%);fill-opacity:1;" d="M 16.757812 13.242188 C 16.765625 13.265625 16.773438 13.289062 16.78125 13.3125 C 16.726562 13.367188 16.671875 13.421875 16.617188 13.476562 C 16.617188 13.390625 16.632812 13.378906 16.6875 13.320312 C 16.699219 13.304688 16.714844 13.289062 16.726562 13.277344 C 16.738281 13.265625 16.746094 13.253906 16.757812 13.242188 Z M 16.757812 13.242188 "/>
<path style=" stroke:none;fill-rule:nonzero;fill:rgb(38.039216%,56.470591%,30.19608%);fill-opacity:1;" d="M 9.914062 7.921875 C 10.007812 7.953125 10.058594 7.992188 10.125 8.0625 C 9.96875 8.027344 9.96875 8.027344 9.925781 7.964844 C 9.921875 7.953125 9.917969 7.9375 9.914062 7.921875 Z M 9.914062 7.921875 "/>
<path style=" stroke:none;fill-rule:nonzero;fill:rgb(15.686275%,22.352941%,12.54902%);fill-opacity:1;" d="M 4.757812 3.328125 C 4.796875 3.335938 4.835938 3.34375 4.875 3.351562 C 4.867188 3.375 4.859375 3.398438 4.851562 3.421875 C 4.8125 3.421875 4.773438 3.421875 4.734375 3.421875 C 4.742188 3.390625 4.75 3.359375 4.757812 3.328125 Z M 4.757812 3.328125 "/>
<path style=" stroke:none;fill-rule:nonzero;fill:rgb(20.392157%,28.627452%,15.294118%);fill-opacity:1;" d="M 19.640625 20.132812 C 19.679688 20.132812 19.71875 20.132812 19.757812 20.132812 C 19.710938 20.15625 19.710938 20.15625 19.664062 20.179688 C 19.65625 20.164062 19.648438 20.148438 19.640625 20.132812 Z M 19.640625 20.132812 "/>
<path style=" stroke:none;fill-rule:nonzero;fill:rgb(45.490196%,65.098041%,37.254903%);fill-opacity:1;" d="M 9.9375 16.03125 C 9.984375 16.054688 9.984375 16.054688 10.03125 16.078125 C 10.007812 16.089844 10.007812 16.089844 9.984375 16.101562 C 9.96875 16.09375 9.953125 16.085938 9.9375 16.078125 C 9.9375 16.0625 9.9375 16.046875 9.9375 16.03125 Z M 9.9375 16.03125 "/>
<path style=" stroke:none;fill-rule:nonzero;fill:rgb(21.568628%,30.19608%,17.254902%);fill-opacity:1;" d="M 3.984375 3.960938 C 4 3.960938 4.015625 3.960938 4.03125 3.960938 C 4.03125 3.976562 4.03125 3.992188 4.03125 4.007812 C 4 4.015625 3.96875 4.023438 3.9375 4.03125 C 3.953125 4.007812 3.96875 3.984375 3.984375 3.960938 Z M 3.984375 3.960938 "/>
<path style=" stroke:none;fill-rule:nonzero;fill:rgb(44.705883%,65.098041%,37.254903%);fill-opacity:1;" d="M 10.125 16.195312 C 10.160156 16.21875 10.160156 16.21875 10.195312 16.242188 C 10.1875 16.257812 10.179688 16.273438 10.171875 16.289062 C 10.15625 16.257812 10.140625 16.226562 10.125 16.195312 Z M 10.125 16.195312 "/>
<path style=" stroke:none;fill-rule:nonzero;fill:rgb(45.09804%,65.098041%,37.254903%);fill-opacity:1;" d="M 13.242188 7.242188 C 13.265625 7.25 13.289062 7.257812 13.3125 7.265625 C 13.296875 7.265625 13.28125 7.265625 13.265625 7.265625 C 13.257812 7.28125 13.25 7.296875 13.242188 7.3125 C 13.242188 7.289062 13.242188 7.265625 13.242188 7.242188 Z M 13.242188 7.242188 "/>
<path style=" stroke:none;fill-rule:nonzero;fill:rgb(43.921569%,63.921571%,36.470589%);fill-opacity:1;" d="M 16.054688 6.75 C 16.101562 6.75 16.148438 6.75 16.195312 6.75 C 16.195312 6.757812 16.195312 6.765625 16.195312 6.773438 C 16.148438 6.773438 16.101562 6.773438 16.054688 6.773438 C 16.054688 6.765625 16.054688 6.757812 16.054688 6.75 Z M 16.054688 6.75 "/>
<path style=" stroke:none;fill-rule:nonzero;fill:rgb(45.490196%,65.490198%,37.254903%);fill-opacity:1;" d="M 6.539062 13.429688 C 6.539062 13.453125 6.539062 13.476562 6.539062 13.5 C 6.523438 13.492188 6.507812 13.484375 6.492188 13.476562 C 6.507812 13.460938 6.523438 13.445312 6.539062 13.429688 Z M 6.539062 13.429688 "/>
<path style=" stroke:none;fill-rule:nonzero;fill:rgb(45.882353%,65.098041%,37.254903%);fill-opacity:1;" d="M 6.796875 13.265625 C 6.835938 13.265625 6.875 13.265625 6.914062 13.265625 C 6.914062 13.273438 6.914062 13.28125 6.914062 13.289062 C 6.875 13.289062 6.835938 13.289062 6.796875 13.289062 C 6.796875 13.28125 6.796875 13.273438 6.796875 13.265625 Z M 6.796875 13.265625 "/>
<path style=" stroke:none;fill-rule:nonzero;fill:rgb(45.09804%,64.705884%,37.254903%);fill-opacity:1;" d="M 8.226562 9.140625 C 8.234375 9.140625 8.242188 9.140625 8.25 9.140625 C 8.25 9.179688 8.25 9.21875 8.25 9.257812 C 8.242188 9.257812 8.234375 9.257812 8.226562 9.257812 C 8.226562 9.21875 8.226562 9.179688 8.226562 9.140625 Z M 8.226562 9.140625 "/>
<path style=" stroke:none;fill-rule:nonzero;fill:rgb(45.490196%,65.490198%,37.64706%);fill-opacity:1;" d="M 10.546875 9.070312 C 10.554688 9.070312 10.5625 9.070312 10.570312 9.070312 C 10.570312 9.109375 10.570312 9.148438 10.570312 9.1875 C 10.5625 9.1875 10.554688 9.1875 10.546875 9.1875 C 10.546875 9.148438 10.546875 9.109375 10.546875 9.070312 Z M 10.546875 9.070312 "/>
<path style=" stroke:none;fill-rule:nonzero;fill:rgb(16.470589%,23.921569%,13.333334%);fill-opacity:1;" d="M 3.210938 4.5 C 3.234375 4.5 3.257812 4.5 3.28125 4.5 C 3.28125 4.515625 3.28125 4.53125 3.28125 4.546875 C 3.257812 4.539062 3.234375 4.53125 3.210938 4.523438 C 3.210938 4.515625 3.210938 4.507812 3.210938 4.5 Z M 3.210938 4.5 "/>
<path style=" stroke:none;fill-rule:nonzero;fill:rgb(18.431373%,26.274511%,14.509805%);fill-opacity:1;" d="M 4.148438 20.15625 C 4.183594 20.179688 4.183594 20.179688 4.21875 20.203125 C 4.195312 20.203125 4.171875 20.203125 4.148438 20.203125 C 4.148438 20.1875 4.148438 20.171875 4.148438 20.15625 Z M 4.148438 20.15625 "/>
<path style=" stroke:none;fill-rule:nonzero;fill:rgb(44.313726%,64.705884%,37.254903%);fill-opacity:1;" d="M 10.921875 16.992188 C 10.9375 17.007812 10.953125 17.023438 10.96875 17.039062 C 10.945312 17.03125 10.921875 17.023438 10.898438 17.015625 C 10.90625 17.007812 10.914062 17 10.921875 16.992188 Z M 10.921875 16.992188 "/>
<path style=" stroke:none;fill-rule:nonzero;fill:rgb(45.490196%,65.882355%,38.039216%);fill-opacity:1;" d="M 10.546875 9.445312 C 10.570312 9.539062 10.570312 9.539062 10.570312 9.539062 Z M 10.546875 9.445312 "/>
<path style=" stroke:none;fill-rule:nonzero;fill:rgb(44.705883%,64.705884%,36.862746%);fill-opacity:1;" d="M 8.226562 9.398438 C 8.25 9.492188 8.25 9.492188 8.25 9.492188 Z M 8.226562 9.398438 "/>
<path style=" stroke:none;fill-rule:nonzero;fill:rgb(45.490196%,65.098041%,37.64706%);fill-opacity:1;" d="M 11.273438 7.640625 C 11.289062 7.65625 11.304688 7.671875 11.320312 7.6875 C 11.296875 7.679688 11.273438 7.671875 11.25 7.664062 C 11.257812 7.65625 11.265625 7.648438 11.273438 7.640625 Z M 11.273438 7.640625 "/>
<path style=" stroke:none;fill-rule:nonzero;fill:rgb(20.392157%,28.235295%,16.470589%);fill-opacity:1;" d="M 19.40625 3.65625 C 19.421875 3.671875 19.4375 3.6875 19.453125 3.703125 C 19.429688 3.714844 19.429688 3.714844 19.40625 3.726562 C 19.40625 3.703125 19.40625 3.679688 19.40625 3.65625 Z M 19.40625 3.65625 "/>
<path style=" stroke:none;fill-rule:nonzero;fill:rgb(18.039216%,25.098041%,13.725491%);fill-opacity:1;" d="M 19.007812 3.398438 C 19.03125 3.40625 19.054688 3.414062 19.078125 3.421875 C 19.054688 3.421875 19.03125 3.421875 19.007812 3.421875 C 19.007812 3.414062 19.007812 3.40625 19.007812 3.398438 Z M 19.007812 3.398438 "/>
<path style=" stroke:none;fill-rule:nonzero;fill:rgb(20%,27.843139%,15.294118%);fill-opacity:1;" d="M 10.101562 20.273438 C 10.171875 20.296875 10.171875 20.296875 10.171875 20.296875 Z M 10.101562 20.273438 "/>
<path style=" stroke:none;fill-rule:nonzero;fill:rgb(20.392157%,28.627452%,15.686275%);fill-opacity:1;" d="M 9.75 20.25 C 9.757812 20.265625 9.765625 20.28125 9.773438 20.296875 C 9.757812 20.289062 9.742188 20.28125 9.726562 20.273438 C 9.734375 20.265625 9.742188 20.257812 9.75 20.25 Z M 9.75 20.25 "/>
<path style=" stroke:none;fill-rule:nonzero;fill:rgb(19.607843%,26.274511%,15.294118%);fill-opacity:1;" d="M 4.640625 20.25 C 4.65625 20.25 4.671875 20.25 4.6875 20.25 C 4.679688 20.265625 4.671875 20.28125 4.664062 20.296875 C 4.65625 20.28125 4.648438 20.265625 4.640625 20.25 Z M 4.640625 20.25 "/>
<path style=" stroke:none;fill-rule:nonzero;fill:rgb(21.176471%,29.019609%,16.470589%);fill-opacity:1;" d="M 10.078125 20.226562 C 10.085938 20.242188 10.09375 20.257812 10.101562 20.273438 C 10.085938 20.265625 10.070312 20.257812 10.054688 20.25 C 10.0625 20.242188 10.070312 20.234375 10.078125 20.226562 Z M 10.078125 20.226562 "/>
<path style=" stroke:none;fill-rule:nonzero;fill:rgb(27.058825%,37.254903%,20.392157%);fill-opacity:1;" d="M 19.992188 19.828125 C 20.007812 19.84375 20.023438 19.859375 20.039062 19.875 C 20.023438 19.875 20.007812 19.875 19.992188 19.875 C 19.992188 19.859375 19.992188 19.84375 19.992188 19.828125 Z M 19.992188 19.828125 "/>
<path style=" stroke:none;fill-rule:nonzero;fill:rgb(27.843139%,39.215687%,21.568628%);fill-opacity:1;" d="M 3.960938 19.78125 C 3.96875 19.796875 3.976562 19.8125 3.984375 19.828125 C 3.96875 19.820312 3.953125 19.8125 3.9375 19.804688 C 3.945312 19.796875 3.953125 19.789062 3.960938 19.78125 Z M 3.960938 19.78125 "/>
<path style=" stroke:none;fill-rule:nonzero;fill:rgb(45.09804%,63.921571%,37.254903%);fill-opacity:1;" d="M 11.695312 18.773438 C 11.765625 18.796875 11.765625 18.796875 11.765625 18.796875 Z M 11.695312 18.773438 "/>
<path style=" stroke:none;fill-rule:nonzero;fill:rgb(45.09804%,65.098041%,37.64706%);fill-opacity:1;" d="M 11.8125 18.75 C 11.882812 18.773438 11.882812 18.773438 11.882812 18.773438 Z M 11.8125 18.75 "/>
<path style=" stroke:none;fill-rule:nonzero;fill:rgb(45.490196%,65.098041%,37.64706%);fill-opacity:1;" d="M 11.179688 18.5625 C 11.203125 18.574219 11.203125 18.574219 11.226562 18.585938 C 11.203125 18.597656 11.203125 18.597656 11.179688 18.609375 C 11.179688 18.59375 11.179688 18.578125 11.179688 18.5625 Z M 11.179688 18.5625 "/>
<path style=" stroke:none;fill-rule:nonzero;fill:rgb(45.09804%,64.705884%,36.862746%);fill-opacity:1;" d="M 11.296875 17.367188 C 11.3125 17.382812 11.328125 17.398438 11.34375 17.414062 C 11.328125 17.414062 11.3125 17.414062 11.296875 17.414062 C 11.296875 17.398438 11.296875 17.382812 11.296875 17.367188 Z M 11.296875 17.367188 "/>
<path style=" stroke:none;fill-rule:nonzero;fill:rgb(44.705883%,64.313728%,36.862746%);fill-opacity:1;" d="M 9.46875 16.898438 C 9.539062 16.921875 9.539062 16.921875 9.539062 16.921875 Z M 9.46875 16.898438 "/>
<path style=" stroke:none;fill-rule:nonzero;fill:rgb(44.705883%,64.313728%,37.254903%);fill-opacity:1;" d="M 10.710938 16.804688 C 10.726562 16.804688 10.742188 16.804688 10.757812 16.804688 C 10.75 16.820312 10.742188 16.835938 10.734375 16.851562 C 10.726562 16.835938 10.71875 16.820312 10.710938 16.804688 Z M 10.710938 16.804688 "/>
<path style=" stroke:none;fill-rule:nonzero;fill:rgb(45.09804%,64.705884%,37.254903%);fill-opacity:1;" d="M 10.523438 16.59375 C 10.539062 16.609375 10.554688 16.625 10.570312 16.640625 C 10.554688 16.640625 10.539062 16.640625 10.523438 16.640625 C 10.523438 16.625 10.523438 16.609375 10.523438 16.59375 Z M 10.523438 16.59375 "/>
<path style=" stroke:none;fill-rule:nonzero;fill:rgb(45.09804%,63.921571%,36.470589%);fill-opacity:1;" d="M 13.757812 16.523438 C 13.828125 16.546875 13.828125 16.546875 13.828125 16.546875 Z M 13.757812 16.523438 "/>
<path style=" stroke:none;fill-rule:nonzero;fill:rgb(45.09804%,65.098041%,37.254903%);fill-opacity:1;" d="M 10.3125 16.382812 C 10.328125 16.398438 10.34375 16.414062 10.359375 16.429688 C 10.34375 16.429688 10.328125 16.429688 10.3125 16.429688 C 10.3125 16.414062 10.3125 16.398438 10.3125 16.382812 Z M 10.3125 16.382812 "/>
<path style=" stroke:none;fill-rule:nonzero;fill:rgb(45.490196%,65.098041%,36.862746%);fill-opacity:1;" d="M 16.59375 13.3125 C 16.601562 13.328125 16.609375 13.34375 16.617188 13.359375 C 16.601562 13.351562 16.585938 13.34375 16.570312 13.335938 C 16.578125 13.328125 16.585938 13.320312 16.59375 13.3125 Z M 16.59375 13.3125 "/>
<path style=" stroke:none;fill-rule:nonzero;fill:rgb(45.490196%,65.490198%,37.254903%);fill-opacity:1;" d="M 15.1875 10.3125 C 15.257812 10.335938 15.257812 10.335938 15.257812 10.335938 Z M 15.1875 10.3125 "/>
<path style=" stroke:none;fill-rule:nonzero;fill:rgb(44.705883%,64.705884%,36.862746%);fill-opacity:1;" d="M 10.335938 7.007812 C 10.40625 7.03125 10.40625 7.03125 10.40625 7.03125 Z M 10.335938 7.007812 "/>
<path style=" stroke:none;fill-rule:nonzero;fill:rgb(45.882353%,65.098041%,37.64706%);fill-opacity:1;" d="M 9.632812 6.492188 C 9.648438 6.507812 9.664062 6.523438 9.679688 6.539062 C 9.664062 6.539062 9.648438 6.539062 9.632812 6.539062 C 9.632812 6.523438 9.632812 6.507812 9.632812 6.492188 Z M 9.632812 6.492188 "/>
<path style=" stroke:none;fill-rule:nonzero;fill:rgb(44.705883%,65.490198%,37.254903%);fill-opacity:1;" d="M 9.023438 6.09375 C 9.03125 6.109375 9.039062 6.125 9.046875 6.140625 C 9.03125 6.132812 9.015625 6.125 9 6.117188 C 9.007812 6.109375 9.015625 6.101562 9.023438 6.09375 Z M 9.023438 6.09375 "/>
<path style=" stroke:none;fill-rule:nonzero;fill:rgb(23.529412%,33.333334%,19.215687%);fill-opacity:1;" d="M 19.476562 3.820312 C 19.5 3.832031 19.5 3.832031 19.523438 3.84375 C 19.5 3.855469 19.5 3.855469 19.476562 3.867188 C 19.476562 3.851562 19.476562 3.835938 19.476562 3.820312 Z M 19.476562 3.820312 "/>
<path style=" stroke:none;fill-rule:nonzero;fill:rgb(20%,27.843139%,16.078432%);fill-opacity:1;" d="M 4.3125 3.75 C 4.328125 3.765625 4.34375 3.78125 4.359375 3.796875 C 4.34375 3.796875 4.328125 3.796875 4.3125 3.796875 C 4.3125 3.78125 4.3125 3.765625 4.3125 3.75 Z M 4.3125 3.75 "/>
<path style=" stroke:none;fill-rule:nonzero;fill:rgb(16.470589%,23.529412%,13.333334%);fill-opacity:1;" d="M 4.570312 3.492188 C 4.585938 3.507812 4.601562 3.523438 4.617188 3.539062 C 4.601562 3.539062 4.585938 3.539062 4.570312 3.539062 C 4.570312 3.523438 4.570312 3.507812 4.570312 3.492188 Z M 4.570312 3.492188 "/>
<path style=" stroke:none;fill-rule:nonzero;fill:rgb(20.392157%,28.627452%,14.901961%);fill-opacity:1;" d="M 17.976562 20.273438 C 18.023438 20.296875 18.023438 20.296875 18.023438 20.296875 Z M 17.976562 20.273438 "/>
<path style=" stroke:none;fill-rule:nonzero;fill:rgb(20%,28.627452%,15.686275%);fill-opacity:1;" d="M 17.789062 20.273438 C 17.835938 20.296875 17.835938 20.296875 17.835938 20.296875 Z M 17.789062 20.273438 "/>
<path style=" stroke:none;fill-rule:nonzero;fill:rgb(20%,29.019609%,15.686275%);fill-opacity:1;" d="M 14.601562 20.273438 C 14.648438 20.296875 14.648438 20.296875 14.648438 20.296875 Z M 14.601562 20.273438 "/>
<path style=" stroke:none;fill-rule:nonzero;fill:rgb(19.607843%,28.235295%,15.294118%);fill-opacity:1;" d="M 14.367188 20.273438 C 14.414062 20.296875 14.414062 20.296875 14.414062 20.296875 Z M 14.367188 20.273438 "/>
<path style=" stroke:none;fill-rule:nonzero;fill:rgb(20%,28.235295%,15.294118%);fill-opacity:1;" d="M 12.234375 20.273438 C 12.28125 20.296875 12.28125 20.296875 12.28125 20.296875 Z M 12.234375 20.273438 "/>
<path style=" stroke:none;fill-rule:nonzero;fill:rgb(20.784314%,29.019609%,16.078432%);fill-opacity:1;" d="M 11.414062 20.273438 C 11.460938 20.296875 11.460938 20.296875 11.460938 20.296875 Z M 11.414062 20.273438 "/>
<path style=" stroke:none;fill-rule:nonzero;fill:rgb(20%,27.843139%,15.686275%);fill-opacity:1;" d="M 10.289062 20.273438 C 10.335938 20.296875 10.335938 20.296875 10.335938 20.296875 Z M 10.289062 20.273438 "/>
<path style=" stroke:none;fill-rule:nonzero;fill:rgb(19.607843%,27.843139%,15.686275%);fill-opacity:1;" d="M 8.976562 20.273438 C 9.023438 20.296875 9.023438 20.296875 9.023438 20.296875 Z M 8.976562 20.273438 "/>
<path style=" stroke:none;fill-rule:nonzero;fill:rgb(19.215687%,26.666668%,14.901961%);fill-opacity:1;" d="M 5.414062 20.273438 C 5.460938 20.296875 5.460938 20.296875 5.460938 20.296875 Z M 5.414062 20.273438 "/>
<path style=" stroke:none;fill-rule:nonzero;fill:rgb(19.215687%,27.450982%,15.294118%);fill-opacity:1;" d="M 5.226562 20.273438 C 5.273438 20.296875 5.273438 20.296875 5.273438 20.296875 Z M 5.226562 20.273438 "/>
<path style=" stroke:none;fill-rule:nonzero;fill:rgb(22.745098%,32.941177%,18.039216%);fill-opacity:1;" d="M 19.265625 20.132812 C 19.3125 20.15625 19.3125 20.15625 19.3125 20.15625 Z M 19.265625 20.132812 "/>
<path style=" stroke:none;fill-rule:nonzero;fill:rgb(19.607843%,27.058825%,15.294118%);fill-opacity:1;" d="M 3.914062 20.085938 C 3.960938 20.109375 3.960938 20.109375 3.960938 20.109375 Z M 3.914062 20.085938 "/>
<path style=" stroke:none;fill-rule:nonzero;fill:rgb(45.09804%,63.529414%,37.254903%);fill-opacity:1;" d="M 9.421875 15.539062 C 9.46875 15.5625 9.46875 15.5625 9.46875 15.5625 Z M 9.421875 15.539062 "/>
<path style=" stroke:none;fill-rule:nonzero;fill:rgb(45.490196%,64.705884%,37.254903%);fill-opacity:1;" d="M 8.835938 14.953125 C 8.882812 14.976562 8.882812 14.976562 8.882812 14.976562 Z M 8.835938 14.953125 "/>
<path style=" stroke:none;fill-rule:nonzero;fill:rgb(44.705883%,63.921571%,36.862746%);fill-opacity:1;" d="M 8.4375 14.601562 C 8.484375 14.625 8.484375 14.625 8.484375 14.625 Z M 8.4375 14.601562 "/>
<path style=" stroke:none;fill-rule:nonzero;fill:rgb(45.09804%,64.705884%,37.64706%);fill-opacity:1;" d="M 7.3125 13.476562 C 7.359375 13.5 7.359375 13.5 7.359375 13.5 Z M 7.3125 13.476562 "/>
<path style=" stroke:none;fill-rule:nonzero;fill:rgb(45.09804%,64.705884%,36.862746%);fill-opacity:1;" d="M 6.703125 13.289062 C 6.75 13.3125 6.75 13.3125 6.75 13.3125 Z M 6.703125 13.289062 "/>
<path style=" stroke:none;fill-rule:nonzero;fill:rgb(45.490196%,63.921571%,37.254903%);fill-opacity:1;" d="M 17.367188 12.375 C 17.414062 12.398438 17.414062 12.398438 17.414062 12.398438 Z M 17.367188 12.375 "/>
<path style=" stroke:none;fill-rule:nonzero;fill:rgb(45.490196%,64.705884%,36.862746%);fill-opacity:1;" d="M 17.765625 10.570312 C 17.8125 10.59375 17.8125 10.59375 17.8125 10.59375 Z M 17.765625 10.570312 "/>
<path style=" stroke:none;fill-rule:nonzero;fill:rgb(45.882353%,65.882355%,37.254903%);fill-opacity:1;" d="M 8.742188 10.3125 C 8.789062 10.335938 8.789062 10.335938 8.789062 10.335938 Z M 8.742188 10.3125 "/>
<path style=" stroke:none;fill-rule:nonzero;fill:rgb(45.490196%,65.490198%,38.039216%);fill-opacity:1;" d="M 12.703125 8.460938 C 12.75 8.484375 12.75 8.484375 12.75 8.484375 Z M 12.703125 8.460938 "/>
<path style=" stroke:none;fill-rule:nonzero;fill:rgb(45.490196%,64.705884%,37.64706%);fill-opacity:1;" d="M 14.15625 8.203125 C 14.203125 8.226562 14.203125 8.226562 14.203125 8.226562 Z M 14.15625 8.203125 "/>
<path style=" stroke:none;fill-rule:nonzero;fill:rgb(45.490196%,65.098041%,36.862746%);fill-opacity:1;" d="M 14.8125 7.335938 C 14.859375 7.359375 14.859375 7.359375 14.859375 7.359375 Z M 14.8125 7.335938 "/>
<path style=" stroke:none;fill-rule:nonzero;fill:rgb(45.09804%,65.490198%,37.64706%);fill-opacity:1;" d="M 13.757812 6.890625 C 13.804688 6.914062 13.804688 6.914062 13.804688 6.914062 Z M 13.757812 6.890625 "/>
<path style=" stroke:none;fill-rule:nonzero;fill:rgb(45.09804%,65.098041%,36.862746%);fill-opacity:1;" d="M 10.195312 6.890625 C 10.242188 6.914062 10.242188 6.914062 10.242188 6.914062 Z M 10.195312 6.890625 "/>
<path style=" stroke:none;fill-rule:nonzero;fill:rgb(45.490196%,64.705884%,37.254903%);fill-opacity:1;" d="M 10.148438 6.867188 C 10.195312 6.890625 10.195312 6.890625 10.195312 6.890625 Z M 10.148438 6.867188 "/>
<path style=" stroke:none;fill-rule:nonzero;fill:rgb(43.921569%,62.7451%,35.686275%);fill-opacity:1;" d="M 7.804688 6.75 C 7.851562 6.773438 7.851562 6.773438 7.851562 6.773438 Z M 7.804688 6.75 "/>
<path style=" stroke:none;fill-rule:nonzero;fill:rgb(46.666667%,65.882355%,38.039216%);fill-opacity:1;" d="M 16.5 5.976562 C 16.546875 6 16.546875 6 16.546875 6 Z M 16.5 5.976562 "/>
<path style=" stroke:none;fill-rule:nonzero;fill:rgb(29.019609%,38.82353%,21.176471%);fill-opacity:1;" d="M 3.9375 4.171875 C 3.984375 4.195312 3.984375 4.195312 3.984375 4.195312 Z M 3.9375 4.171875 "/>
</g>
</svg>
