<?xml version="1.0" encoding="UTF-8"?>
<svg xmlns="http://www.w3.org/2000/svg" xmlns:xlink="http://www.w3.org/1999/xlink" width="24px" height="24px" viewBox="0 0 24 24" version="1.1">
<g id="surface1">
<path style=" stroke:none;fill-rule:nonzero;fill:rgb(0%,0%,0%);fill-opacity:1;" d="M 11.34375 0.0273438 C 9.832031 0.214844 8.574219 0.832031 7.523438 1.894531 C 6.589844 2.835938 6.058594 3.839844 5.777344 5.15625 C 5.667969 5.707031 5.667969 6.949219 5.777344 7.5 C 6.058594 8.816406 6.597656 9.824219 7.523438 10.761719 C 8.464844 11.714844 9.496094 12.269531 10.828125 12.550781 C 11.378906 12.660156 12.609375 12.660156 13.183594 12.550781 C 14.449219 12.292969 15.496094 11.730469 16.433594 10.804688 C 17.378906 9.871094 17.941406 8.832031 18.222656 7.5 C 18.332031 6.949219 18.332031 5.707031 18.222656 5.15625 C 18.035156 4.289062 17.707031 3.488281 17.226562 2.765625 C 16.933594 2.320312 16.019531 1.402344 15.582031 1.113281 C 14.824219 0.613281 14.011719 0.269531 13.207031 0.117188 C 12.832031 0.0429688 11.671875 -0.0117188 11.34375 0.0273438 Z M 13.125 1.535156 C 14.050781 1.78125 14.835938 2.222656 15.472656 2.855469 C 16.105469 3.488281 16.535156 4.246094 16.792969 5.203125 C 16.933594 5.714844 16.933594 6.941406 16.792969 7.453125 C 16.535156 8.410156 16.105469 9.167969 15.472656 9.800781 C 14.839844 10.433594 14.082031 10.863281 13.125 11.121094 C 12.613281 11.261719 11.386719 11.261719 10.875 11.121094 C 9.917969 10.863281 9.160156 10.433594 8.527344 9.800781 C 6.714844 7.988281 6.597656 5.113281 8.261719 3.140625 C 8.976562 2.285156 10.152344 1.628906 11.25 1.457031 C 11.707031 1.386719 12.707031 1.429688 13.125 1.535156 Z M 13.125 1.535156 "/>
<path style=" stroke:none;fill-rule:nonzero;fill:rgb(0%,0%,0%);fill-opacity:1;" d="M 9.480469 14.136719 C 6.855469 14.457031 4.488281 15.941406 2.964844 18.234375 C 2.074219 19.574219 1.558594 21.160156 1.472656 22.851562 C 1.441406 23.371094 1.449219 23.433594 1.542969 23.613281 C 1.605469 23.746094 1.699219 23.839844 1.828125 23.90625 C 2.011719 24 2.082031 24 12 24 C 21.917969 24 21.988281 24 22.171875 23.90625 C 22.300781 23.839844 22.394531 23.746094 22.457031 23.613281 C 22.550781 23.433594 22.558594 23.371094 22.527344 22.851562 C 22.40625 20.542969 21.527344 18.515625 19.921875 16.855469 C 18.402344 15.285156 16.441406 14.332031 14.300781 14.109375 C 13.59375 14.039062 10.136719 14.058594 9.480469 14.136719 Z M 14.226562 15.515625 C 17.332031 15.871094 19.941406 18.058594 20.808594 21.050781 C 20.949219 21.527344 21.09375 22.261719 21.09375 22.480469 L 21.09375 22.59375 L 2.90625 22.59375 L 2.90625 22.457031 C 2.90625 22.207031 3.097656 21.324219 3.253906 20.839844 C 3.761719 19.285156 4.738281 17.941406 6.082031 16.945312 C 6.558594 16.589844 7.617188 16.042969 8.226562 15.847656 C 8.691406 15.691406 9.238281 15.574219 9.738281 15.519531 C 10.214844 15.464844 13.738281 15.464844 14.226562 15.515625 Z M 14.226562 15.515625 "/>
</g>
</svg>
